<svg fill="none" height="150" viewBox="0 0 122 150" width="122" xmlns="http://www.w3.org/2000/svg"><path d="m0 0h122v150h-122z" fill="#fff"/><rect fill="#cbdcff" height="26" rx="2" width="108" x="7" y="23.1782"/><rect fill="#3c46ff" height="26" rx="2" width="108" x="7" y="103.178"/><rect fill="#ff6e3c" height="26" rx="2" width="108" x="7" y="63"/><g fill="#000"><path d="m61 129.178-2.8868 5h5.7736zm.5 17.822v-11.878h-1v11.878zm0-11.878v-1.444h-1v1.444z"/><path d="m61 89-2.8868 5h5.7736zm.5 14.178v-9.449h-1v9.449zm0-9.449v-.229h-1v.229z"/><path d="m61 49.1782-2.8868 5h5.7736zm.5 13.8218v-9.2117h-1v9.2117zm0-9.2117v-.1101h-1v.1101z"/><path d="m61 5-2.8868 5h5.7736zm.5 18.1782v-12.1151h-1v12.1151zm0-12.1151v-1.5631h-1v1.5631z"/></g><path d="m.5-.5h121v121h-121z" stroke="#000" transform="matrix(1 0 0 -1 0 136)"/><path d="m30.75 136v-120" stroke="#000" stroke-dasharray="2 2"/><path d="m61 136v-120" stroke="#000" stroke-dasharray="2 2"/><path d="m91.25 136v-120" stroke="#000" stroke-dasharray="2 2"/></svg>