<svg fill="none" height="160" viewBox="0 0 623 160" width="623" xmlns="http://www.w3.org/2000/svg"><path d="m313.307 149.892v-1.008h-6.984v1.008h2.916v7.608h1.152v-7.608zm3.245 1.308c-.108-.012-.264-.024-.432-.024-.852 0-1.464.48-1.74 1.116v-1.068h-1.08v6.276h1.08v-3.432c0-1.104.732-1.824 1.644-1.824.204 0 .348.012.528.048zm2.633 6.408c.852 0 1.548-.324 1.932-.816.132.6.684.828 1.644.708v-.864c-.42.096-.672-.036-.672-.444v-3.06c0-1.344-.864-2.028-2.268-2.028-1.284 0-2.208.732-2.508 1.752l1.02.264c.192-.696.66-1.068 1.452-1.068.84 0 1.236.408 1.236 1.128v.264l-1.524.312c-1.404.288-2.376.804-2.376 2.052 0 1.128.924 1.8 2.064 1.8zm1.836-2.244c0 .804-.78 1.368-1.704 1.368-.684 0-1.128-.36-1.128-.972 0-.756.648-1.02 1.608-1.212l1.224-.264zm2.86-5.232h1.176v-1.248h-1.176zm1.128 1.092h-1.08v6.276h1.08zm1.803 6.276h1.08v-3.744c0-1.044.792-1.644 1.572-1.644.936 0 1.308.66 1.308 1.536v3.852h1.08v-4.14c0-1.332-.756-2.256-2.088-2.256-.888 0-1.512.456-1.872.972v-.852h-1.08zm6.726-7.368h1.176v-1.248h-1.176zm1.128 1.092h-1.08v6.276h1.08zm1.802 6.276h1.08v-3.744c0-1.044.792-1.644 1.572-1.644.936 0 1.308.66 1.308 1.536v3.852h1.08v-4.14c0-1.332-.756-2.256-2.088-2.256-.888 0-1.512.456-1.872.972v-.852h-1.08zm12.09-.564v-5.712h-1.08v.924c-.336-.612-1.056-1.044-1.92-1.044-1.716 0-2.724 1.416-2.724 3.12 0 1.716 1.008 3.132 2.724 3.132.876 0 1.584-.432 1.92-1.044v.708c0 1.308-.732 1.872-1.836 1.872-.876 0-1.524-.468-1.728-1.272l-1.008.384c.348 1.152 1.356 1.788 2.736 1.788 1.704 0 2.916-1.02 2.916-2.856zm-1.068-2.808v.228c0 1.38-.84 2.052-1.74 2.052-1.14 0-1.836-.864-1.836-2.184s.696-2.172 1.836-2.172c.9 0 1.74.672 1.74 2.076zm5.564 1.872c0 1.2.612 1.56 1.68 1.56.36 0 .672-.036.948-.096v-.924c-.252.06-.432.072-.684.072-.552 0-.876-.12-.876-.78v-3.684h1.428v-.924h-1.428v-1.836h-1.068v1.836h-.972v.924h.972zm3.862-5.868h1.176v-1.248h-1.176zm1.128 1.092h-1.08v6.276h1.08zm2.883 2.52c0-1.02.768-1.632 1.488-1.632.888 0 1.248.66 1.248 1.536v3.852h1.08v-3.756c0-1.02.768-1.632 1.488-1.632.888 0 1.248.66 1.248 1.536v3.852h1.08v-4.14c0-1.332-.78-2.256-2.076-2.256-.984 0-1.656.552-2.004 1.068-.312-.648-.9-1.068-1.74-1.068-.876 0-1.476.456-1.812.972v-.852h-1.08v6.276h1.08zm11.881 3.888c1.248 0 2.196-.684 2.58-1.8l-.948-.336c-.192.744-.792 1.2-1.632 1.2-1.092 0-1.848-.84-1.908-2.16h4.536v-.36c0-1.74-.924-3.072-2.676-3.072-1.704 0-2.892 1.392-2.892 3.264 0 1.932 1.2 3.264 2.94 3.264zm-.06-5.604c1.092 0 1.572.792 1.596 1.68h-3.384c.192-1.068.876-1.68 1.788-1.68z" fill="#000"/><path d="m228.338 119.384h-1.152v8.616h1.152zm4.151 8.748c.876 0 1.572-.42 1.944-1.044v.912h1.08v-8.616h-1.08v3.252c-.372-.612-1.068-1.032-1.944-1.032-1.74 0-2.736 1.476-2.736 3.264 0 1.776.996 3.264 2.736 3.264zm1.968-3.48v.444c0 1.44-.888 2.088-1.776 2.088-1.176 0-1.836-.972-1.836-2.316 0-1.356.66-2.316 1.836-2.316.888 0 1.776.636 1.776 2.1zm3.921-5.268h-1.08v8.616h1.08zm4.311 8.748c1.248 0 2.196-.684 2.58-1.8l-.948-.336c-.192.744-.792 1.2-1.632 1.2-1.092 0-1.848-.84-1.908-2.16h4.536v-.36c0-1.74-.924-3.072-2.676-3.072-1.704 0-2.892 1.392-2.892 3.264 0 1.932 1.2 3.264 2.94 3.264zm-.06-5.604c1.092 0 1.572.792 1.596 1.68h-3.384c.192-1.068.876-1.68 1.788-1.68z" fill="#747474"/><path d="m508 11.0002h32v32h-32z" fill="#cdcdcd" stroke="#fff"/><path d="m526.365 23.3842h-1.152l-.72 5.172c-.252 1.788-1.152 2.532-2.46 2.532-1.452 0-2.244-.948-2.016-2.532l.72-5.172h-1.152l-.732 5.208c-.3 2.172.996 3.528 3.132 3.528 1.968 0 3.312-1.152 3.648-3.528zm2.811 10.056.168-1.176h.828l.084-.708h-.816l.408-2.892h-1.224l-2.292 2.94-.096.66h2.256l-.168 1.176zm-1.992-1.884 1.692-2.148-.3 2.148z" fill="#000"/><path d="m508 43.0002h32v32h-32z" fill="#cdcdcd" stroke="#fff"/><path d="m526.365 55.3842h-1.152l-.72 5.172c-.252 1.788-1.152 2.532-2.46 2.532-1.452 0-2.244-.948-2.016-2.532l.72-5.172h-1.152l-.732 5.208c-.3 2.172.996 3.528 3.132 3.528 1.968 0 3.312-1.152 3.648-3.528zm1.803 10.128c1.056 0 1.752-.696 1.752-1.488 0-.492-.288-.876-.72-1.02.528-.12.972-.564.972-1.164 0-.708-.612-1.248-1.512-1.248-.936 0-1.62.576-1.848 1.392l.828.156c.144-.48.516-.768.936-.768.408 0 .684.24.684.588 0 .372-.336.696-.852.696h-.492l-.096.66h.444c.492 0 .792.252.792.636 0 .432-.36.78-.864.78s-.864-.348-.876-.864l-.9.144c.048.912.78 1.5 1.752 1.5z" fill="#000"/><path d="m188 11.0002h32v32h-32z" fill="#cbdcff" stroke="#fff"/><path d="m192.81 32.0002h3.588c1.848 0 3.012-1.104 3.012-2.568 0-.972-.528-1.632-1.368-1.872.924-.204 1.644-1.044 1.644-2.172 0-1.2-.816-2.004-2.604-2.004h-3.06zm1.8-4.92.384-2.724h1.992c1.056 0 1.596.432 1.596 1.212 0 .816-.6 1.512-1.812 1.512zm-.132.984h2.148c1.164 0 1.692.54 1.692 1.32 0 .912-.66 1.644-1.884 1.644h-2.376zm8.241 5.376.168-1.176h.828l.084-.708h-.816l.408-2.892h-1.224l-2.292 2.94-.096.66h2.256l-.168 1.176zm-1.992-1.884 1.692-2.148-.3 2.148zm7.043-8.412c-1.608 1.416-2.7 3.672-2.7 5.88 0 1.608.54 3.036 1.392 4.152h1.092c-.792-1.056-1.296-2.556-1.296-4.152 0-2.052.996-4.248 2.712-5.88zm3.964.192c-.216.996-.6 1.344-1.632 1.416l-.936.06-.12.852h2.076l-.888 6.336h1.152l1.212-8.664zm1.848 9.84c1.608-1.416 2.7-3.672 2.7-5.88 0-1.608-.54-3.036-1.392-4.152h-1.092c.792 1.056 1.296 2.556 1.296 4.152 0 2.052-.996 4.248-2.712 5.88z" fill="#000"/><path d="m508 75.0002h32v32h-32z" fill="#cdcdcd" stroke="#fff"/><path d="m526.365 87.3842h-1.152l-.72 5.172c-.252 1.788-1.152 2.532-2.46 2.532-1.452 0-2.244-.948-2.016-2.532l.72-5.172h-1.152l-.732 5.208c-.3 2.172.996 3.528 3.132 3.528 1.968 0 3.312-1.152 3.648-3.528zm.027 9.324-.096.732h3.432l.108-.792h-2.088l1.092-.78c.912-.648 1.248-1.248 1.248-1.872 0-.864-.624-1.404-1.536-1.404-1.08 0-1.8.756-1.8 1.716 0 .156.024.288.048.408h.864c-.024-.12-.048-.252-.048-.372 0-.528.336-.936.864-.936.408 0 .708.252.708.66 0 .42-.3.864-.996 1.356z" fill="#000"/><path d="m252 11.0002h32v32h-32z" fill="#afc1ff" stroke="#fff"/><path d="m255.721 32.0002h3.588c1.848 0 3.012-1.104 3.012-2.568 0-.972-.528-1.632-1.368-1.872.924-.204 1.644-1.044 1.644-2.172 0-1.2-.816-2.004-2.604-2.004h-3.06zm1.8-4.92.384-2.724h1.992c1.056 0 1.596.432 1.596 1.212 0 .816-.6 1.512-1.812 1.512zm-.132.984h2.148c1.164 0 1.692.54 1.692 1.32 0 .912-.66 1.644-1.884 1.644h-2.376zm8.24 5.376.168-1.176h.828l.084-.708h-.816l.408-2.892h-1.224l-2.292 2.94-.096.66h2.256l-.168 1.176zm-1.992-1.884 1.692-2.148-.3 2.148zm7.043-8.412c-1.608 1.416-2.7 3.672-2.7 5.88 0 1.608.54 3.036 1.392 4.152h1.092c-.792-1.056-1.296-2.556-1.296-4.152 0-2.052.996-4.248 2.712-5.88zm.676 7.908-.132.948h5.928l.144-1.008h-4.296l2.496-1.824c1.656-1.212 2.34-2.292 2.34-3.444 0-1.476-1.14-2.472-2.676-2.472-1.776 0-3.036 1.344-3.036 3.048 0 .24.024.456.072.648h1.068c-.048-.192-.06-.396-.06-.6 0-1.248.828-2.112 1.92-2.112.936 0 1.584.636 1.584 1.536 0 .804-.504 1.68-2.064 2.832zm7.315 2.124c1.608-1.416 2.7-3.672 2.7-5.88 0-1.608-.54-3.036-1.392-4.152h-1.092c.792 1.056 1.296 2.556 1.296 4.152 0 2.052-.996 4.248-2.712 5.88z" fill="#000"/><path d="m316 11.0002h32v32h-32z" fill="#7989ff" stroke="#fff"/><path d="m319.644 32.0002h3.588c1.848 0 3.012-1.104 3.012-2.568 0-.972-.528-1.632-1.368-1.872.924-.204 1.644-1.044 1.644-2.172 0-1.2-.816-2.004-2.604-2.004h-3.06zm1.8-4.92.384-2.724h1.992c1.056 0 1.596.432 1.596 1.212 0 .816-.6 1.512-1.812 1.512zm-.132.984h2.148c1.164 0 1.692.54 1.692 1.32 0 .912-.66 1.644-1.884 1.644h-2.376zm8.241 5.376.168-1.176h.828l.084-.708h-.816l.408-2.892h-1.224l-2.292 2.94-.096.66h2.256l-.168 1.176zm-1.992-1.884 1.692-2.148-.3 2.148zm7.043-8.412c-1.608 1.416-2.7 3.672-2.7 5.88 0 1.608.54 3.036 1.392 4.152h1.092c-.792-1.056-1.296-2.556-1.296-4.152 0-2.052.996-4.248 2.712-5.88zm3.784 8.988c1.896 0 3.108-1.26 3.108-2.712 0-.924-.528-1.584-1.344-1.836 1.008-.312 1.692-1.092 1.692-2.136 0-1.248-1.044-2.196-2.604-2.196-1.584 0-2.748.96-3.156 2.448l1.032.24c.312-1.128 1.116-1.704 2.064-1.704.9 0 1.548.528 1.548 1.284 0 .888-.768 1.512-1.788 1.512h-1.044l-.132.972h.936c.996 0 1.704.528 1.704 1.416 0 .984-.828 1.74-1.98 1.74-1.08 0-1.908-.696-1.992-1.92l-1.08.192c.024 1.716 1.392 2.7 3.036 2.7zm4.36 1.044c1.608-1.416 2.7-3.672 2.7-5.88 0-1.608-.54-3.036-1.392-4.152h-1.092c.792 1.056 1.296 2.556 1.296 4.152 0 2.052-.996 4.248-2.712 5.88z" fill="#fff"/><path d="m380 11.0002h32v32h-32z" fill="#3c46ff" stroke="#fff"/><path d="m383.574 32.0002h3.588c1.848 0 3.012-1.104 3.012-2.568 0-.972-.528-1.632-1.368-1.872.924-.204 1.644-1.044 1.644-2.172 0-1.2-.816-2.004-2.604-2.004h-3.06zm1.8-4.92.384-2.724h1.992c1.056 0 1.596.432 1.596 1.212 0 .816-.6 1.512-1.812 1.512zm-.132.984h2.148c1.164 0 1.692.54 1.692 1.32 0 .912-.66 1.644-1.884 1.644h-2.376zm8.241 5.376.168-1.176h.828l.084-.708h-.816l.408-2.892h-1.224l-2.292 2.94-.096.66h2.256l-.168 1.176zm-1.992-1.884 1.692-2.148-.3 2.148zm7.043-8.412c-1.608 1.416-2.7 3.672-2.7 5.88 0 1.608.54 3.036 1.392 4.152h1.092c-.792-1.056-1.296-2.556-1.296-4.152 0-2.052.996-4.248 2.712-5.88zm5.289 8.856.312-2.244h1.68l.132-.96h-1.668l.768-5.412h-1.524l-4.488 5.472-.12.9h4.164l-.324 2.244zm-3.564-3.204 3.54-4.332-.612 4.332zm6.559 4.38c1.608-1.416 2.7-3.672 2.7-5.88 0-1.608-.54-3.036-1.392-4.152h-1.092c.792 1.056 1.296 2.556 1.296 4.152 0 2.052-.996 4.248-2.712 5.88z" fill="#fff"/><path d="m508 107h32v32h-32z" fill="#cdcdcd" stroke="#fff"/><path d="m526.365 119.384h-1.152l-.72 5.172c-.252 1.788-1.152 2.532-2.46 2.532-1.452 0-2.244-.948-2.016-2.532l.72-5.172h-1.152l-.732 5.208c-.3 2.172.996 3.528 3.132 3.528 1.968 0 3.312-1.152 3.648-3.528zm1.839 6.684-.36 2.58h-1.176l-.108.792h3.108l.108-.792h-1.02l.564-4.008h-.684c-.156.564-.408.756-1.032.78l-.504.024-.084.624z" fill="#000"/><path d="m220 43.0002h32v32h-32z" fill="#cbdcff" stroke="#fff"/><path d="m224.81 64.0002h3.588c1.848 0 3.012-1.104 3.012-2.568 0-.972-.528-1.632-1.368-1.872.924-.204 1.644-1.044 1.644-2.172 0-1.2-.816-2.004-2.604-2.004h-3.06zm1.8-4.92.384-2.724h1.992c1.056 0 1.596.432 1.596 1.212 0 .816-.6 1.512-1.812 1.512zm-.132.984h2.148c1.164 0 1.692.54 1.692 1.32 0 .912-.66 1.644-1.884 1.644h-2.376zm7.233 5.448c1.056 0 1.752-.696 1.752-1.488 0-.492-.288-.876-.72-1.02.528-.12.972-.564.972-1.164 0-.708-.612-1.248-1.512-1.248-.936 0-1.62.576-1.848 1.392l.828.156c.144-.48.516-.768.936-.768.408 0 .684.24.684.588 0 .372-.336.696-.852.696h-.492l-.096.66h.444c.492 0 .792.252.792.636 0 .432-.36.78-.864.78s-.864-.348-.876-.864l-.9.144c.048.912.78 1.5 1.752 1.5zm6.059-10.368c-1.608 1.416-2.7 3.672-2.7 5.88 0 1.608.54 3.036 1.392 4.152h1.092c-.792-1.056-1.296-2.556-1.296-4.152 0-2.052.996-4.248 2.712-5.88zm3.964.192c-.216.996-.6 1.344-1.632 1.416l-.936.06-.12.852h2.076l-.888 6.336h1.152l1.212-8.664zm1.848 9.84c1.608-1.416 2.7-3.672 2.7-5.88 0-1.608-.54-3.036-1.392-4.152h-1.092c.792 1.056 1.296 2.556 1.296 4.152 0 2.052-.996 4.248-2.712 5.88z" fill="#000"/><path d="m252 75.0002h32v32h-32z" fill="#cbdcff" stroke="#fff"/><path d="m256.81 96.0002h3.588c1.848 0 3.012-1.104 3.012-2.568 0-.972-.528-1.632-1.368-1.872.924-.204 1.644-1.044 1.644-2.172 0-1.2-.816-2.004-2.604-2.004h-3.06zm1.8-4.92.384-2.724h1.992c1.056 0 1.596.432 1.596 1.212 0 .816-.6 1.512-1.812 1.512zm-.132.984h2.148c1.164 0 1.692.54 1.692 1.32 0 .912-.66 1.644-1.884 1.644h-2.376zm5.457 4.644-.096.732h3.432l.108-.792h-2.088l1.092-.78c.912-.648 1.248-1.248 1.248-1.872 0-.864-.624-1.404-1.536-1.404-1.08 0-1.8.756-1.8 1.716 0 .156.024.288.048.408h.864c-.024-.12-.048-.252-.048-.372 0-.528.336-.936.864-.936.408 0 .708.252.708.66 0 .42-.3.864-.996 1.356zm7.835-9.564c-1.608 1.416-2.7 3.672-2.7 5.88 0 1.608.54 3.036 1.392 4.152h1.092c-.792-1.056-1.296-2.556-1.296-4.152 0-2.052.996-4.248 2.712-5.88zm3.964.192c-.216.996-.6 1.344-1.632 1.416l-.936.06-.12.852h2.076l-.888 6.336h1.152l1.212-8.664zm1.848 9.84c1.608-1.416 2.7-3.672 2.7-5.88 0-1.608-.54-3.036-1.392-4.152h-1.092c.792 1.056 1.296 2.556 1.296 4.152 0 2.052-.996 4.248-2.712 5.88z" fill="#000"/><path d="m284 107h32v32h-32z" fill="#cbdcff" stroke="#fff"/><path d="m288.81 128h3.588c1.848 0 3.012-1.104 3.012-2.568 0-.972-.528-1.632-1.368-1.872.924-.204 1.644-1.044 1.644-2.172 0-1.2-.816-2.004-2.604-2.004h-3.06zm1.8-4.92.384-2.724h1.992c1.056 0 1.596.432 1.596 1.212 0 .816-.6 1.512-1.812 1.512zm-.132.984h2.148c1.164 0 1.692.54 1.692 1.32 0 .912-.66 1.644-1.884 1.644h-2.376zm7.269 2.004-.36 2.58h-1.176l-.108.792h3.108l.108-.792h-1.02l.564-4.008h-.684c-.156.564-.408.756-1.032.78l-.504.024-.084.624zm6.023-6.924c-1.608 1.416-2.7 3.672-2.7 5.88 0 1.608.54 3.036 1.392 4.152h1.092c-.792-1.056-1.296-2.556-1.296-4.152 0-2.052.996-4.248 2.712-5.88zm3.964.192c-.216.996-.6 1.344-1.632 1.416l-.936.06-.12.852h2.076l-.888 6.336h1.152l1.212-8.664zm1.848 9.84c1.608-1.416 2.7-3.672 2.7-5.88 0-1.608-.54-3.036-1.392-4.152h-1.092c.792 1.056 1.296 2.556 1.296 4.152 0 2.052-.996 4.248-2.712 5.88z" fill="#000"/><path d="m284 43.0002h32v32h-32z" fill="#afc1ff" stroke="#fff"/><path d="m287.721 64.0002h3.588c1.848 0 3.012-1.104 3.012-2.568 0-.972-.528-1.632-1.368-1.872.924-.204 1.644-1.044 1.644-2.172 0-1.2-.816-2.004-2.604-2.004h-3.06zm1.8-4.92.384-2.724h1.992c1.056 0 1.596.432 1.596 1.212 0 .816-.6 1.512-1.812 1.512zm-.132.984h2.148c1.164 0 1.692.54 1.692 1.32 0 .912-.66 1.644-1.884 1.644h-2.376zm7.232 5.448c1.056 0 1.752-.696 1.752-1.488 0-.492-.288-.876-.72-1.02.528-.12.972-.564.972-1.164 0-.708-.612-1.248-1.512-1.248-.936 0-1.62.576-1.848 1.392l.828.156c.144-.48.516-.768.936-.768.408 0 .684.24.684.588 0 .372-.336.696-.852.696h-.492l-.096.66h.444c.492 0 .792.252.792.636 0 .432-.36.78-.864.78s-.864-.348-.876-.864l-.9.144c.048.912.78 1.5 1.752 1.5zm6.059-10.368c-1.608 1.416-2.7 3.672-2.7 5.88 0 1.608.54 3.036 1.392 4.152h1.092c-.792-1.056-1.296-2.556-1.296-4.152 0-2.052.996-4.248 2.712-5.88zm.676 7.908-.132.948h5.928l.144-1.008h-4.296l2.496-1.824c1.656-1.212 2.34-2.292 2.34-3.444 0-1.476-1.14-2.472-2.676-2.472-1.776 0-3.036 1.344-3.036 3.048 0 .24.024.456.072.648h1.068c-.048-.192-.06-.396-.06-.6 0-1.248.828-2.112 1.92-2.112.936 0 1.584.636 1.584 1.536 0 .804-.504 1.68-2.064 2.832zm7.315 2.124c1.608-1.416 2.7-3.672 2.7-5.88 0-1.608-.54-3.036-1.392-4.152h-1.092c.792 1.056 1.296 2.556 1.296 4.152 0 2.052-.996 4.248-2.712 5.88z" fill="#000"/><path d="m317 75.0002h32v32h-32z" fill="#afc1ff" stroke="#fff"/><path d="m320.721 96.0002h3.588c1.848 0 3.012-1.104 3.012-2.568 0-.972-.528-1.632-1.368-1.872.924-.204 1.644-1.044 1.644-2.172 0-1.2-.816-2.004-2.604-2.004h-3.06zm1.8-4.92.384-2.724h1.992c1.056 0 1.596.432 1.596 1.212 0 .816-.6 1.512-1.812 1.512zm-.132.984h2.148c1.164 0 1.692.54 1.692 1.32 0 .912-.66 1.644-1.884 1.644h-2.376zm5.456 4.644-.096.732h3.432l.108-.792h-2.088l1.092-.78c.912-.648 1.248-1.248 1.248-1.872 0-.864-.624-1.404-1.536-1.404-1.08 0-1.8.756-1.8 1.716 0 .156.024.288.048.408h.864c-.024-.12-.048-.252-.048-.372 0-.528.336-.936.864-.936.408 0 .708.252.708.66 0 .42-.3.864-.996 1.356zm7.835-9.564c-1.608 1.416-2.7 3.672-2.7 5.88 0 1.608.54 3.036 1.392 4.152h1.092c-.792-1.056-1.296-2.556-1.296-4.152 0-2.052.996-4.248 2.712-5.88zm.676 7.908-.132.948h5.928l.144-1.008h-4.296l2.496-1.824c1.656-1.212 2.34-2.292 2.34-3.444 0-1.476-1.14-2.472-2.676-2.472-1.776 0-3.036 1.344-3.036 3.048 0 .24.024.456.072.648h1.068c-.048-.192-.06-.396-.06-.6 0-1.248.828-2.112 1.92-2.112.936 0 1.584.636 1.584 1.536 0 .804-.504 1.68-2.064 2.832zm7.315 2.124c1.608-1.416 2.7-3.672 2.7-5.88 0-1.608-.54-3.036-1.392-4.152h-1.092c.792 1.056 1.296 2.556 1.296 4.152 0 2.052-.996 4.248-2.712 5.88z" fill="#000"/><path d="m348 107h32v32h-32z" fill="#afc1ff" stroke="#fff"/><path d="m351.721 128h3.588c1.848 0 3.012-1.104 3.012-2.568 0-.972-.528-1.632-1.368-1.872.924-.204 1.644-1.044 1.644-2.172 0-1.2-.816-2.004-2.604-2.004h-3.06zm1.8-4.92.384-2.724h1.992c1.056 0 1.596.432 1.596 1.212 0 .816-.6 1.512-1.812 1.512zm-.132.984h2.148c1.164 0 1.692.54 1.692 1.32 0 .912-.66 1.644-1.884 1.644h-2.376zm7.268 2.004-.36 2.58h-1.176l-.108.792h3.108l.108-.792h-1.02l.564-4.008h-.684c-.156.564-.408.756-1.032.78l-.504.024-.084.624zm6.023-6.924c-1.608 1.416-2.7 3.672-2.7 5.88 0 1.608.54 3.036 1.392 4.152h1.092c-.792-1.056-1.296-2.556-1.296-4.152 0-2.052.996-4.248 2.712-5.88zm.676 7.908-.132.948h5.928l.144-1.008h-4.296l2.496-1.824c1.656-1.212 2.34-2.292 2.34-3.444 0-1.476-1.14-2.472-2.676-2.472-1.776 0-3.036 1.344-3.036 3.048 0 .24.024.456.072.648h1.068c-.048-.192-.06-.396-.06-.6 0-1.248.828-2.112 1.92-2.112.936 0 1.584.636 1.584 1.536 0 .804-.504 1.68-2.064 2.832zm7.315 2.124c1.608-1.416 2.7-3.672 2.7-5.88 0-1.608-.54-3.036-1.392-4.152h-1.092c.792 1.056 1.296 2.556 1.296 4.152 0 2.052-.996 4.248-2.712 5.88z" fill="#000"/><path d="m348 43.0002h32v32h-32z" fill="#7989ff" stroke="#fff"/><path d="m351.644 64.0002h3.588c1.848 0 3.012-1.104 3.012-2.568 0-.972-.528-1.632-1.368-1.872.924-.204 1.644-1.044 1.644-2.172 0-1.2-.816-2.004-2.604-2.004h-3.06zm1.8-4.92.384-2.724h1.992c1.056 0 1.596.432 1.596 1.212 0 .816-.6 1.512-1.812 1.512zm-.132.984h2.148c1.164 0 1.692.54 1.692 1.32 0 .912-.66 1.644-1.884 1.644h-2.376zm7.233 5.448c1.056 0 1.752-.696 1.752-1.488 0-.492-.288-.876-.72-1.02.528-.12.972-.564.972-1.164 0-.708-.612-1.248-1.512-1.248-.936 0-1.62.576-1.848 1.392l.828.156c.144-.48.516-.768.936-.768.408 0 .684.24.684.588 0 .372-.336.696-.852.696h-.492l-.096.66h.444c.492 0 .792.252.792.636 0 .432-.36.78-.864.78s-.864-.348-.876-.864l-.9.144c.048.912.78 1.5 1.752 1.5zm6.059-10.368c-1.608 1.416-2.7 3.672-2.7 5.88 0 1.608.54 3.036 1.392 4.152h1.092c-.792-1.056-1.296-2.556-1.296-4.152 0-2.052.996-4.248 2.712-5.88zm3.784 8.988c1.896 0 3.108-1.26 3.108-2.712 0-.924-.528-1.584-1.344-1.836 1.008-.312 1.692-1.092 1.692-2.136 0-1.248-1.044-2.196-2.604-2.196-1.584 0-2.748.96-3.156 2.448l1.032.24c.312-1.128 1.116-1.704 2.064-1.704.9 0 1.548.528 1.548 1.284 0 .888-.768 1.512-1.788 1.512h-1.044l-.132.972h.936c.996 0 1.704.528 1.704 1.416 0 .984-.828 1.74-1.98 1.74-1.08 0-1.908-.696-1.992-1.92l-1.08.192c.024 1.716 1.392 2.7 3.036 2.7zm4.36 1.044c1.608-1.416 2.7-3.672 2.7-5.88 0-1.608-.54-3.036-1.392-4.152h-1.092c.792 1.056 1.296 2.556 1.296 4.152 0 2.052-.996 4.248-2.712 5.88z" fill="#fff"/><path d="m572 43.0002h32v32h-32z" fill="#7989ff" stroke="#fff"/><path d="m575.533 64.0002h3.588c1.848 0 3.012-1.104 3.012-2.568 0-.972-.528-1.632-1.368-1.872.924-.204 1.644-1.044 1.644-2.172 0-1.2-.816-2.004-2.604-2.004h-3.06zm1.8-4.92.384-2.724h1.992c1.056 0 1.596.432 1.596 1.212 0 .816-.6 1.512-1.812 1.512zm-.132.984h2.148c1.164 0 1.692.54 1.692 1.32 0 .912-.66 1.644-1.884 1.644h-2.376zm7.233 5.448c1.056 0 1.752-.696 1.752-1.488 0-.492-.288-.876-.72-1.02.528-.12.972-.564.972-1.164 0-.708-.612-1.248-1.512-1.248-.936 0-1.62.576-1.848 1.392l.828.156c.144-.48.516-.768.936-.768.408 0 .684.24.684.588 0 .372-.336.696-.852.696h-.492l-.096.66h.444c.492 0 .792.252.792.636 0 .432-.36.78-.864.78s-.864-.348-.876-.864l-.9.144c.048.912.78 1.5 1.752 1.5zm6.059-10.368c-1.608 1.416-2.7 3.672-2.7 5.88 0 1.608.54 3.036 1.392 4.152h1.092c-.792-1.056-1.296-2.556-1.296-4.152 0-2.052.996-4.248 2.712-5.88zm7.66 2.196c-.192-1.212-1.152-2.088-2.544-2.088-2.388 0-3.996 2.484-3.996 5.436 0 2.268 1.2 3.444 2.856 3.444 1.896 0 3.18-1.584 3.18-3.252 0-1.476-1.032-2.58-2.568-2.58-.984 0-1.836.492-2.34 1.236.264-1.908 1.404-3.3 2.76-3.3.9 0 1.56.576 1.68 1.44zm-3.672 5.844c-1.008 0-1.74-.744-1.74-1.764 0-1.164.864-2.184 2.088-2.184 1.02 0 1.764.732 1.764 1.74 0 1.164-.888 2.208-2.112 2.208zm4.378 1.992c1.608-1.416 2.7-3.672 2.7-5.88 0-1.608-.54-3.036-1.392-4.152h-1.092c.792 1.056 1.296 2.556 1.296 4.152 0 2.052-.996 4.248-2.712 5.88z" fill="#fff"/><path d="m540 11h32v32h-32z" fill="#7989ff" stroke="#fff"/><path d="m543.533 32h3.588c1.848 0 3.012-1.104 3.012-2.568 0-.972-.528-1.632-1.368-1.872.924-.204 1.644-1.044 1.644-2.172 0-1.2-.816-2.004-2.604-2.004h-3.06zm1.8-4.92.384-2.724h1.992c1.056 0 1.596.432 1.596 1.212 0 .816-.6 1.512-1.812 1.512zm-.132.984h2.148c1.164 0 1.692.54 1.692 1.32 0 .912-.66 1.644-1.884 1.644h-2.376zm8.241 5.376.168-1.176h.828l.084-.708h-.816l.408-2.892h-1.224l-2.292 2.94-.096.66h2.256l-.168 1.176zm-1.992-1.884 1.692-2.148-.3 2.148zm7.043-8.412c-1.608 1.416-2.7 3.672-2.7 5.88 0 1.608.54 3.036 1.392 4.152h1.092c-.792-1.056-1.296-2.556-1.296-4.152 0-2.052.996-4.248 2.712-5.88zm7.66 2.196c-.192-1.212-1.152-2.088-2.544-2.088-2.388 0-3.996 2.484-3.996 5.436 0 2.268 1.2 3.444 2.856 3.444 1.896 0 3.18-1.584 3.18-3.252 0-1.476-1.032-2.58-2.568-2.58-.984 0-1.836.492-2.34 1.236.264-1.908 1.404-3.3 2.76-3.3.9 0 1.56.576 1.68 1.44zm-3.672 5.844c-1.008 0-1.74-.744-1.74-1.764 0-1.164.864-2.184 2.088-2.184 1.02 0 1.764.732 1.764 1.74 0 1.164-.888 2.208-2.112 2.208zm4.378 1.992c1.608-1.416 2.7-3.672 2.7-5.88 0-1.608-.54-3.036-1.392-4.152h-1.092c.792 1.056 1.296 2.556 1.296 4.152 0 2.052-.996 4.248-2.712 5.88z" fill="#fff"/><path d="m380 75.0002h32v32h-32z" fill="#7989ff" stroke="#fff"/><path d="m383.644 96.0002h3.588c1.848 0 3.012-1.104 3.012-2.568 0-.972-.528-1.632-1.368-1.872.924-.204 1.644-1.044 1.644-2.172 0-1.2-.816-2.004-2.604-2.004h-3.06zm1.8-4.92.384-2.724h1.992c1.056 0 1.596.432 1.596 1.212 0 .816-.6 1.512-1.812 1.512zm-.132.984h2.148c1.164 0 1.692.54 1.692 1.32 0 .912-.66 1.644-1.884 1.644h-2.376zm5.457 4.644-.096.732h3.432l.108-.792h-2.088l1.092-.78c.912-.648 1.248-1.248 1.248-1.872 0-.864-.624-1.404-1.536-1.404-1.08 0-1.8.756-1.8 1.716 0 .156.024.288.048.408h.864c-.024-.12-.048-.252-.048-.372 0-.528.336-.936.864-.936.408 0 .708.252.708.66 0 .42-.3.864-.996 1.356zm7.835-9.564c-1.608 1.416-2.7 3.672-2.7 5.88 0 1.608.54 3.036 1.392 4.152h1.092c-.792-1.056-1.296-2.556-1.296-4.152 0-2.052.996-4.248 2.712-5.88zm3.784 8.988c1.896 0 3.108-1.26 3.108-2.712 0-.924-.528-1.584-1.344-1.836 1.008-.312 1.692-1.092 1.692-2.136 0-1.248-1.044-2.196-2.604-2.196-1.584 0-2.748.96-3.156 2.448l1.032.24c.312-1.128 1.116-1.704 2.064-1.704.9 0 1.548.528 1.548 1.284 0 .888-.768 1.512-1.788 1.512h-1.044l-.132.972h.936c.996 0 1.704.528 1.704 1.416 0 .984-.828 1.74-1.98 1.74-1.08 0-1.908-.696-1.992-1.92l-1.08.192c.024 1.716 1.392 2.7 3.036 2.7zm4.36 1.044c1.608-1.416 2.7-3.672 2.7-5.88 0-1.608-.54-3.036-1.392-4.152h-1.092c.792 1.056 1.296 2.556 1.296 4.152 0 2.052-.996 4.248-2.712 5.88z" fill="#fff"/><path d="m412 107h32v32h-32z" fill="#7989ff" stroke="#fff"/><path d="m415.644 128h3.588c1.848 0 3.012-1.104 3.012-2.568 0-.972-.528-1.632-1.368-1.872.924-.204 1.644-1.044 1.644-2.172 0-1.2-.816-2.004-2.604-2.004h-3.06zm1.8-4.92.384-2.724h1.992c1.056 0 1.596.432 1.596 1.212 0 .816-.6 1.512-1.812 1.512zm-.132.984h2.148c1.164 0 1.692.54 1.692 1.32 0 .912-.66 1.644-1.884 1.644h-2.376zm7.269 2.004-.36 2.58h-1.176l-.108.792h3.108l.108-.792h-1.02l.564-4.008h-.684c-.156.564-.408.756-1.032.78l-.504.024-.084.624zm6.023-6.924c-1.608 1.416-2.7 3.672-2.7 5.88 0 1.608.54 3.036 1.392 4.152h1.092c-.792-1.056-1.296-2.556-1.296-4.152 0-2.052.996-4.248 2.712-5.88zm3.784 8.988c1.896 0 3.108-1.26 3.108-2.712 0-.924-.528-1.584-1.344-1.836 1.008-.312 1.692-1.092 1.692-2.136 0-1.248-1.044-2.196-2.604-2.196-1.584 0-2.748.96-3.156 2.448l1.032.24c.312-1.128 1.116-1.704 2.064-1.704.9 0 1.548.528 1.548 1.284 0 .888-.768 1.512-1.788 1.512h-1.044l-.132.972h.936c.996 0 1.704.528 1.704 1.416 0 .984-.828 1.74-1.98 1.74-1.08 0-1.908-.696-1.992-1.92l-1.08.192c.024 1.716 1.392 2.7 3.036 2.7zm4.36 1.044c1.608-1.416 2.7-3.672 2.7-5.88 0-1.608-.54-3.036-1.392-4.152h-1.092c.792 1.056 1.296 2.556 1.296 4.152 0 2.052-.996 4.248-2.712 5.88z" fill="#fff"/><path d="m412 43.0002h32v32h-32z" fill="#3c46ff" stroke="#fff"/><path d="m415.574 64.0002h3.588c1.848 0 3.012-1.104 3.012-2.568 0-.972-.528-1.632-1.368-1.872.924-.204 1.644-1.044 1.644-2.172 0-1.2-.816-2.004-2.604-2.004h-3.06zm1.8-4.92.384-2.724h1.992c1.056 0 1.596.432 1.596 1.212 0 .816-.6 1.512-1.812 1.512zm-.132.984h2.148c1.164 0 1.692.54 1.692 1.32 0 .912-.66 1.644-1.884 1.644h-2.376zm7.233 5.448c1.056 0 1.752-.696 1.752-1.488 0-.492-.288-.876-.72-1.02.528-.12.972-.564.972-1.164 0-.708-.612-1.248-1.512-1.248-.936 0-1.62.576-1.848 1.392l.828.156c.144-.48.516-.768.936-.768.408 0 .684.24.684.588 0 .372-.336.696-.852.696h-.492l-.096.66h.444c.492 0 .792.252.792.636 0 .432-.36.78-.864.78s-.864-.348-.876-.864l-.9.144c.048.912.78 1.5 1.752 1.5zm6.059-10.368c-1.608 1.416-2.7 3.672-2.7 5.88 0 1.608.54 3.036 1.392 4.152h1.092c-.792-1.056-1.296-2.556-1.296-4.152 0-2.052.996-4.248 2.712-5.88zm5.289 8.856.312-2.244h1.68l.132-.96h-1.668l.768-5.412h-1.524l-4.488 5.472-.12.9h4.164l-.324 2.244zm-3.564-3.204 3.54-4.332-.612 4.332zm6.559 4.38c1.608-1.416 2.7-3.672 2.7-5.88 0-1.608-.54-3.036-1.392-4.152h-1.092c.792 1.056 1.296 2.556 1.296 4.152 0 2.052-.996 4.248-2.712 5.88z" fill="#fff"/><path d="m444 75.0002h32v32h-32z" fill="#3c46ff" stroke="#fff"/><path d="m447.574 96.0002h3.588c1.848 0 3.012-1.104 3.012-2.568 0-.972-.528-1.632-1.368-1.872.924-.204 1.644-1.044 1.644-2.172 0-1.2-.816-2.004-2.604-2.004h-3.06zm1.8-4.92.384-2.724h1.992c1.056 0 1.596.432 1.596 1.212 0 .816-.6 1.512-1.812 1.512zm-.132.984h2.148c1.164 0 1.692.54 1.692 1.32 0 .912-.66 1.644-1.884 1.644h-2.376zm5.457 4.644-.096.732h3.432l.108-.792h-2.088l1.092-.78c.912-.648 1.248-1.248 1.248-1.872 0-.864-.624-1.404-1.536-1.404-1.08 0-1.8.756-1.8 1.716 0 .156.024.288.048.408h.864c-.024-.12-.048-.252-.048-.372 0-.528.336-.936.864-.936.408 0 .708.252.708.66 0 .42-.3.864-.996 1.356zm7.835-9.564c-1.608 1.416-2.7 3.672-2.7 5.88 0 1.608.54 3.036 1.392 4.152h1.092c-.792-1.056-1.296-2.556-1.296-4.152 0-2.052.996-4.248 2.712-5.88zm5.289 8.856.312-2.244h1.68l.132-.96h-1.668l.768-5.412h-1.524l-4.488 5.472-.12.9h4.164l-.324 2.244zm-3.564-3.204 3.54-4.332-.612 4.332zm6.559 4.38c1.608-1.416 2.7-3.672 2.7-5.88 0-1.608-.54-3.036-1.392-4.152h-1.092c.792 1.056 1.296 2.556 1.296 4.152 0 2.052-.996 4.248-2.712 5.88z" fill="#fff"/><path d="m540 75.0002h32v32h-32z" fill="#cbdcff" stroke="#fff"/><path d="m543.697 96.0002h3.588c1.848 0 3.012-1.104 3.012-2.568 0-.972-.528-1.632-1.368-1.872.924-.204 1.644-1.044 1.644-2.172 0-1.2-.816-2.004-2.604-2.004h-3.06zm1.8-4.92.384-2.724h1.992c1.056 0 1.596.432 1.596 1.212 0 .816-.6 1.512-1.812 1.512zm-.132.984h2.148c1.164 0 1.692.54 1.692 1.32 0 .912-.66 1.644-1.884 1.644h-2.376zm5.457 4.644-.096.732h3.432l.108-.792h-2.088l1.092-.78c.912-.648 1.248-1.248 1.248-1.872 0-.864-.624-1.404-1.536-1.404-1.08 0-1.8.756-1.8 1.716 0 .156.024.288.048.408h.864c-.024-.12-.048-.252-.048-.372 0-.528.336-.936.864-.936.408 0 .708.252.708.66 0 .42-.3.864-.996 1.356zm7.835-9.564c-1.608 1.416-2.7 3.672-2.7 5.88 0 1.608.54 3.036 1.392 4.152h1.092c-.792-1.056-1.296-2.556-1.296-4.152 0-2.052.996-4.248 2.712-5.88zm2.584 4.848c.42-.468.984-.732 1.584-.732 1.008 0 1.62.732 1.62 1.728 0 1.188-.876 2.184-2.076 2.184-.984 0-1.716-.672-1.872-1.836l-1.068.156c.132 1.632 1.344 2.64 2.904 2.64 1.92 0 3.204-1.524 3.204-3.228 0-1.44-.948-2.58-2.448-2.58-.66 0-1.248.216-1.704.612l.576-2.544h3.804l.144-1.008h-4.692l-.984 4.38zm5.454 5.184c1.608-1.416 2.7-3.672 2.7-5.88 0-1.608-.54-3.036-1.392-4.152h-1.092c.792 1.056 1.296 2.556 1.296 4.152 0 2.052-.996 4.248-2.712 5.88z" fill="#000"/><path d="m572 107h32v32h-32z" fill="#cbdcff" stroke="#fff"/><path d="m575.697 128h3.588c1.848 0 3.012-1.104 3.012-2.568 0-.972-.528-1.632-1.368-1.872.924-.204 1.644-1.044 1.644-2.172 0-1.2-.816-2.004-2.604-2.004h-3.06zm1.8-4.92.384-2.724h1.992c1.056 0 1.596.432 1.596 1.212 0 .816-.6 1.512-1.812 1.512zm-.132.984h2.148c1.164 0 1.692.54 1.692 1.32 0 .912-.66 1.644-1.884 1.644h-2.376zm7.269 2.004-.36 2.58h-1.176l-.108.792h3.108l.108-.792h-1.02l.564-4.008h-.684c-.156.564-.408.756-1.032.78l-.504.024-.084.624zm6.023-6.924c-1.608 1.416-2.7 3.672-2.7 5.88 0 1.608.54 3.036 1.392 4.152h1.092c-.792-1.056-1.296-2.556-1.296-4.152 0-2.052.996-4.248 2.712-5.88zm2.584 4.848c.42-.468.984-.732 1.584-.732 1.008 0 1.62.732 1.62 1.728 0 1.188-.876 2.184-2.076 2.184-.984 0-1.716-.672-1.872-1.836l-1.068.156c.132 1.632 1.344 2.64 2.904 2.64 1.92 0 3.204-1.524 3.204-3.228 0-1.44-.948-2.58-2.448-2.58-.66 0-1.248.216-1.704.612l.576-2.544h3.804l.144-1.008h-4.692l-.984 4.38zm5.454 5.184c1.608-1.416 2.7-3.672 2.7-5.88 0-1.608-.54-3.036-1.392-4.152h-1.092c.792 1.056 1.296 2.556 1.296 4.152 0 2.052-.996 4.248-2.712 5.88z" fill="#000"/><path d="m476 43h32v32h-32z" fill="#cbdcff" stroke="#fff"/><path d="m479.697 64h3.588c1.848 0 3.012-1.104 3.012-2.568 0-.972-.528-1.632-1.368-1.872.924-.204 1.644-1.044 1.644-2.172 0-1.2-.816-2.004-2.604-2.004h-3.06zm1.8-4.92.384-2.724h1.992c1.056 0 1.596.432 1.596 1.212 0 .816-.6 1.512-1.812 1.512zm-.132.984h2.148c1.164 0 1.692.54 1.692 1.32 0 .912-.66 1.644-1.884 1.644h-2.376zm7.233 5.448c1.056 0 1.752-.696 1.752-1.488 0-.492-.288-.876-.72-1.02.528-.12.972-.564.972-1.164 0-.708-.612-1.248-1.512-1.248-.936 0-1.62.576-1.848 1.392l.828.156c.144-.48.516-.768.936-.768.408 0 .684.24.684.588 0 .372-.336.696-.852.696h-.492l-.096.66h.444c.492 0 .792.252.792.636 0 .432-.36.78-.864.78s-.864-.348-.876-.864l-.9.144c.048.912.78 1.5 1.752 1.5zm6.059-10.368c-1.608 1.416-2.7 3.672-2.7 5.88 0 1.608.54 3.036 1.392 4.152h1.092c-.792-1.056-1.296-2.556-1.296-4.152 0-2.052.996-4.248 2.712-5.88zm2.584 4.848c.42-.468.984-.732 1.584-.732 1.008 0 1.62.732 1.62 1.728 0 1.188-.876 2.184-2.076 2.184-.984 0-1.716-.672-1.872-1.836l-1.068.156c.132 1.632 1.344 2.64 2.904 2.64 1.92 0 3.204-1.524 3.204-3.228 0-1.44-.948-2.58-2.448-2.58-.66 0-1.248.216-1.704.612l.576-2.544h3.804l.144-1.008h-4.692l-.984 4.38zm5.454 5.184c1.608-1.416 2.7-3.672 2.7-5.88 0-1.608-.54-3.036-1.392-4.152h-1.092c.792 1.056 1.296 2.556 1.296 4.152 0 2.052-.996 4.248-2.712 5.88z" fill="#000"/><path d="m444 11h32v32h-32z" fill="#cbdcff" stroke="#fff"/><path d="m447.697 32h3.588c1.848 0 3.012-1.104 3.012-2.568 0-.972-.528-1.632-1.368-1.872.924-.204 1.644-1.044 1.644-2.172 0-1.2-.816-2.004-2.604-2.004h-3.06zm1.8-4.92.384-2.724h1.992c1.056 0 1.596.432 1.596 1.212 0 .816-.6 1.512-1.812 1.512zm-.132.984h2.148c1.164 0 1.692.54 1.692 1.32 0 .912-.66 1.644-1.884 1.644h-2.376zm8.241 5.376.168-1.176h.828l.084-.708h-.816l.408-2.892h-1.224l-2.292 2.94-.096.66h2.256l-.168 1.176zm-1.992-1.884 1.692-2.148-.3 2.148zm7.043-8.412c-1.608 1.416-2.7 3.672-2.7 5.88 0 1.608.54 3.036 1.392 4.152h1.092c-.792-1.056-1.296-2.556-1.296-4.152 0-2.052.996-4.248 2.712-5.88zm2.584 4.848c.42-.468.984-.732 1.584-.732 1.008 0 1.62.732 1.62 1.728 0 1.188-.876 2.184-2.076 2.184-.984 0-1.716-.672-1.872-1.836l-1.068.156c.132 1.632 1.344 2.64 2.904 2.64 1.92 0 3.204-1.524 3.204-3.228 0-1.44-.948-2.58-2.448-2.58-.66 0-1.248.216-1.704.612l.576-2.544h3.804l.144-1.008h-4.692l-.984 4.38zm5.454 5.184c1.608-1.416 2.7-3.672 2.7-5.88 0-1.608-.54-3.036-1.392-4.152h-1.092c.792 1.056 1.296 2.556 1.296 4.152 0 2.052-.996 4.248-2.712 5.88z" fill="#000"/><path d="m476 107h32v32h-32z" fill="#3c46ff" stroke="#fff"/><path d="m479.574 128h3.588c1.848 0 3.012-1.104 3.012-2.568 0-.972-.528-1.632-1.368-1.872.924-.204 1.644-1.044 1.644-2.172 0-1.2-.816-2.004-2.604-2.004h-3.06zm1.8-4.92.384-2.724h1.992c1.056 0 1.596.432 1.596 1.212 0 .816-.6 1.512-1.812 1.512zm-.132.984h2.148c1.164 0 1.692.54 1.692 1.32 0 .912-.66 1.644-1.884 1.644h-2.376zm7.269 2.004-.36 2.58h-1.176l-.108.792h3.108l.108-.792h-1.02l.564-4.008h-.684c-.156.564-.408.756-1.032.78l-.504.024-.084.624zm6.023-6.924c-1.608 1.416-2.7 3.672-2.7 5.88 0 1.608.54 3.036 1.392 4.152h1.092c-.792-1.056-1.296-2.556-1.296-4.152 0-2.052.996-4.248 2.712-5.88zm5.289 8.856.312-2.244h1.68l.132-.96h-1.668l.768-5.412h-1.524l-4.488 5.472-.12.9h4.164l-.324 2.244zm-3.564-3.204 3.54-4.332-.612 4.332zm6.559 4.38c1.608-1.416 2.7-3.672 2.7-5.88 0-1.608-.54-3.036-1.392-4.152h-1.092c.792 1.056 1.296 2.556 1.296 4.152 0 2.052-.996 4.248-2.712 5.88z" fill="#fff"/><path d="m348 11.0002h32v32h-32z" fill="#ff6e3c" stroke="#fff"/><path d="m353.042 32.0002.54-3.828h3.744l.144-1.008h-3.744l.384-2.772h4.428l.144-1.008h-5.568l-1.212 8.616zm8.113 1.44.168-1.176h.828l.084-.708h-.816l.408-2.892h-1.224l-2.292 2.94-.096.66h2.256l-.168 1.176zm-1.992-1.884 1.692-2.148-.3 2.148zm7.042-8.412c-1.608 1.416-2.7 3.672-2.7 5.88 0 1.608.54 3.036 1.392 4.152h1.092c-.792-1.056-1.296-2.556-1.296-4.152 0-2.052.996-4.248 2.712-5.88zm5.29 8.856.312-2.244h1.68l.132-.96h-1.668l.768-5.412h-1.524l-4.488 5.472-.12.9h4.164l-.324 2.244zm-3.564-3.204 3.54-4.332-.612 4.332zm6.559 4.38c1.608-1.416 2.7-3.672 2.7-5.88 0-1.608-.54-3.036-1.392-4.152h-1.092c.792 1.056 1.296 2.556 1.296 4.152 0 2.052-.996 4.248-2.712 5.88z" fill="#000"/><path d="m284 11.0002h32v32h-32z" fill="#ff9574" stroke="#fff"/><path d="m289.112 32.0002.54-3.828h3.744l.144-1.008h-3.744l.384-2.772h4.428l.144-1.008h-5.568l-1.212 8.616zm8.113 1.44.168-1.176h.828l.084-.708h-.816l.408-2.892h-1.224l-2.292 2.94-.096.66h2.256l-.168 1.176zm-1.992-1.884 1.692-2.148-.3 2.148zm7.043-8.412c-1.608 1.416-2.7 3.672-2.7 5.88 0 1.608.54 3.036 1.392 4.152h1.092c-.792-1.056-1.296-2.556-1.296-4.152 0-2.052.996-4.248 2.712-5.88zm3.784 8.988c1.896 0 3.108-1.26 3.108-2.712 0-.924-.528-1.584-1.344-1.836 1.008-.312 1.692-1.092 1.692-2.136 0-1.248-1.044-2.196-2.604-2.196-1.584 0-2.748.96-3.156 2.448l1.032.24c.312-1.128 1.116-1.704 2.064-1.704.9 0 1.548.528 1.548 1.284 0 .888-.768 1.512-1.788 1.512h-1.044l-.132.972h.936c.996 0 1.704.528 1.704 1.416 0 .984-.828 1.74-1.98 1.74-1.08 0-1.908-.696-1.992-1.92l-1.08.192c.024 1.716 1.392 2.7 3.036 2.7zm4.36 1.044c1.608-1.416 2.7-3.672 2.7-5.88 0-1.608-.54-3.036-1.392-4.152h-1.092c.792 1.056 1.296 2.556 1.296 4.152 0 2.052-.996 4.248-2.713 5.88z" fill="#000"/><path d="m220 11.0002h32v32h-32z" fill="#ffb7a4" stroke="#fff"/><path d="m224.689 32.0002.54-3.828h3.744l.144-1.008h-3.744l.384-2.772h4.428l.144-1.008h-5.568l-1.212 8.616zm8.112 1.44.168-1.176h.828l.084-.708h-.816l.408-2.892h-1.224l-2.292 2.94-.096.66h2.256l-.168 1.176zm-1.992-1.884 1.692-2.148-.3 2.148zm7.043-8.412c-1.608 1.416-2.7 3.672-2.7 5.88 0 1.608.54 3.036 1.392 4.152h1.092c-.792-1.056-1.296-2.556-1.296-4.152 0-2.052.996-4.248 2.712-5.88zm.676 7.908-.132.948h5.928l.144-1.008h-4.296l2.496-1.824c1.656-1.212 2.34-2.292 2.34-3.444 0-1.476-1.14-2.472-2.676-2.472-1.776 0-3.036 1.344-3.036 3.048 0 .24.024.456.072.648h1.068c-.048-.192-.06-.396-.06-.6 0-1.248.828-2.112 1.92-2.112.936 0 1.584.636 1.584 1.536 0 .804-.504 1.68-2.064 2.832zm7.315 2.124c1.608-1.416 2.7-3.672 2.7-5.88 0-1.608-.54-3.036-1.392-4.152h-1.092c.792 1.056 1.296 2.556 1.296 4.152 0 2.052-.996 4.248-2.712 5.88z" fill="#000"/><path d="m156 11.0002h32v32h-32z" fill="#ffd3c9" stroke="#fff"/><path d="m161.778 32.0002.54-3.828h3.744l.144-1.008h-3.744l.384-2.772h4.428l.144-1.008h-5.568l-1.212 8.616zm8.113 1.44.168-1.176h.828l.084-.708h-.816l.408-2.892h-1.224l-2.292 2.94-.096.66h2.256l-.168 1.176zm-1.992-1.884 1.692-2.148-.3 2.148zm7.043-8.412c-1.608 1.416-2.7 3.672-2.7 5.88 0 1.608.54 3.036 1.392 4.152h1.092c-.792-1.056-1.296-2.556-1.296-4.152 0-2.052.996-4.248 2.712-5.88zm3.964.192c-.216.996-.6 1.344-1.632 1.416l-.936.06-.12.852h2.076l-.888 6.336h1.152l1.212-8.664zm1.847 9.84c1.608-1.416 2.7-3.672 2.7-5.88 0-1.608-.54-3.036-1.392-4.152h-1.092c.792 1.056 1.296 2.556 1.296 4.152 0 2.052-.996 4.248-2.712 5.88z" fill="#000"/><path d="m252 43.0002h32v32h-32z" fill="#ff6e3c" stroke="#fff"/><path d="m257.042 64.0002.54-3.828h3.744l.144-1.008h-3.744l.384-2.772h4.428l.144-1.008h-5.568l-1.212 8.616zm7.105 1.512c1.056 0 1.752-.696 1.752-1.488 0-.492-.288-.876-.72-1.02.528-.12.972-.564.972-1.164 0-.708-.612-1.248-1.512-1.248-.936 0-1.62.576-1.848 1.392l.828.156c.144-.48.516-.768.936-.768.408 0 .684.24.684.588 0 .372-.336.696-.852.696h-.492l-.096.66h.444c.492 0 .792.252.792.636 0 .432-.36.78-.864.78s-.864-.348-.876-.864l-.9.144c.048.912.78 1.5 1.752 1.5zm6.058-10.368c-1.608 1.416-2.7 3.672-2.7 5.88 0 1.608.54 3.036 1.392 4.152h1.092c-.792-1.056-1.296-2.556-1.296-4.152 0-2.052.996-4.248 2.712-5.88zm5.29 8.856.312-2.244h1.68l.132-.96h-1.668l.768-5.412h-1.524l-4.488 5.472-.12.9h4.164l-.324 2.244zm-3.564-3.204 3.54-4.332-.612 4.332zm6.559 4.38c1.608-1.416 2.7-3.672 2.7-5.88 0-1.608-.54-3.036-1.392-4.152h-1.092c.792 1.056 1.296 2.556 1.296 4.152 0 2.052-.996 4.248-2.712 5.88z" fill="#000"/><path d="m380 43.0002h32v32h-32z" fill="#ffd3c9" stroke="#fff"/><path d="m384.665 64.0002.54-3.828h3.744l.144-1.008h-3.744l.384-2.772h4.428l.144-1.008h-5.568l-1.212 8.616zm7.105 1.512c1.056 0 1.752-.696 1.752-1.488 0-.492-.288-.876-.72-1.02.528-.12.972-.564.972-1.164 0-.708-.612-1.248-1.512-1.248-.936 0-1.62.576-1.848 1.392l.828.156c.144-.48.516-.768.936-.768.408 0 .684.24.684.588 0 .372-.336.696-.852.696h-.492l-.096.66h.444c.492 0 .792.252.792.636 0 .432-.36.78-.864.78s-.864-.348-.876-.864l-.9.144c.048.912.78 1.5 1.752 1.5zm6.058-10.368c-1.608 1.416-2.7 3.672-2.7 5.88 0 1.608.54 3.036 1.392 4.152h1.092c-.792-1.056-1.296-2.556-1.296-4.152 0-2.052.996-4.248 2.712-5.88zm2.584 4.848c.42-.468.984-.732 1.584-.732 1.008 0 1.62.732 1.62 1.728 0 1.188-.876 2.184-2.076 2.184-.984 0-1.716-.672-1.872-1.836l-1.068.156c.132 1.632 1.344 2.64 2.904 2.64 1.92 0 3.204-1.524 3.204-3.228 0-1.44-.948-2.58-2.448-2.58-.66 0-1.248.216-1.704.612l.576-2.544h3.804l.144-1.008h-4.692l-.984 4.38zm5.455 5.184c1.608-1.416 2.7-3.672 2.7-5.88 0-1.608-.54-3.036-1.392-4.152h-1.092c.792 1.056 1.296 2.556 1.296 4.152 0 2.052-.996 4.248-2.712 5.88z" fill="#000"/><path d="m412 11h32v32h-32z" fill="#ffd3c9" stroke="#fff"/><path d="m416.665 32 .54-3.828h3.744l.144-1.008h-3.744l.384-2.772h4.428l.144-1.008h-5.568l-1.212 8.616zm8.113 1.44.168-1.176h.828l.084-.708h-.816l.408-2.892h-1.224l-2.292 2.94-.096.66h2.256l-.168 1.176zm-1.992-1.884 1.692-2.148-.3 2.148zm7.042-8.412c-1.608 1.416-2.7 3.672-2.7 5.88 0 1.608.54 3.036 1.392 4.152h1.092c-.792-1.056-1.296-2.556-1.296-4.152 0-2.052.996-4.248 2.712-5.88zm2.584 4.848c.42-.468.984-.732 1.584-.732 1.008 0 1.62.732 1.62 1.728 0 1.188-.876 2.184-2.076 2.184-.984 0-1.716-.672-1.872-1.836l-1.068.156c.132 1.632 1.344 2.64 2.904 2.64 1.92 0 3.204-1.524 3.204-3.228 0-1.44-.948-2.58-2.448-2.58-.66 0-1.248.216-1.704.612l.576-2.544h3.804l.144-1.008h-4.692l-.984 4.38zm5.455 5.184c1.608-1.416 2.7-3.672 2.7-5.88 0-1.608-.54-3.036-1.392-4.152h-1.092c.792 1.056 1.296 2.556 1.296 4.152 0 2.052-.996 4.248-2.712 5.88z" fill="#000"/><path d="m348 75h32v32h-32z" fill="#ffd3c9" stroke="#fff"/><path d="m352.665 96 .54-3.828h3.744l.144-1.008h-3.744l.384-2.772h4.428l.144-1.008h-5.568l-1.212 8.616zm5.329.708-.096.732h3.432l.108-.792h-2.088l1.092-.78c.912-.648 1.248-1.248 1.248-1.872 0-.864-.624-1.404-1.536-1.404-1.08 0-1.8.756-1.8 1.716 0 .156.024.288.048.408h.864c-.024-.12-.048-.252-.048-.372 0-.528.336-.936.864-.936.408 0 .708.252.708.66 0 .42-.3.864-.996 1.356zm7.834-9.564c-1.608 1.416-2.7 3.672-2.7 5.88 0 1.608.54 3.036 1.392 4.152h1.092c-.792-1.056-1.296-2.556-1.296-4.152 0-2.052.996-4.248 2.712-5.88zm2.584 4.848c.42-.468.984-.732 1.584-.732 1.008 0 1.62.732 1.62 1.728 0 1.188-.876 2.184-2.076 2.184-.984 0-1.716-.672-1.872-1.836l-1.068.156c.132 1.632 1.344 2.64 2.904 2.64 1.92 0 3.204-1.524 3.204-3.228 0-1.44-.948-2.58-2.448-2.58-.66 0-1.248.216-1.704.612l.576-2.544h3.804l.144-1.008h-4.692l-.984 4.38zm5.455 5.184c1.608-1.416 2.7-3.672 2.7-5.88 0-1.608-.54-3.036-1.392-4.152h-1.092c.792 1.056 1.296 2.556 1.296 4.152 0 2.052-.996 4.248-2.712 5.88z" fill="#000"/><path d="m316 107h32v32h-32z" fill="#ffd3c9" stroke="#fff"/><path d="m320.665 128 .54-3.828h3.744l.144-1.008h-3.744l.384-2.772h4.428l.144-1.008h-5.568l-1.212 8.616zm7.141-1.932-.36 2.58h-1.176l-.108.792h3.108l.108-.792h-1.02l.564-4.008h-.684c-.156.564-.408.756-1.032.78l-.504.024-.084.624zm6.022-6.924c-1.608 1.416-2.7 3.672-2.7 5.88 0 1.608.54 3.036 1.392 4.152h1.092c-.792-1.056-1.296-2.556-1.296-4.152 0-2.052.996-4.248 2.712-5.88zm2.584 4.848c.42-.468.984-.732 1.584-.732 1.008 0 1.62.732 1.62 1.728 0 1.188-.876 2.184-2.076 2.184-.984 0-1.716-.672-1.872-1.836l-1.068.156c.132 1.632 1.344 2.64 2.904 2.64 1.92 0 3.204-1.524 3.204-3.228 0-1.44-.948-2.58-2.448-2.58-.66 0-1.248.216-1.704.612l.576-2.544h3.804l.144-1.008h-4.692l-.984 4.38zm5.455 5.184c1.608-1.416 2.7-3.672 2.7-5.88 0-1.608-.54-3.036-1.392-4.152h-1.092c.792 1.056 1.296 2.556 1.296 4.152 0 2.052-.996 4.248-2.712 5.88z" fill="#000"/><path d="m188 75.0002h32v32h-32z" fill="#ff6e3c" stroke="#fff"/><path d="m193.042 96.0002.54-3.828h3.744l.144-1.008h-3.744l.384-2.772h4.428l.144-1.008h-5.568l-1.212 8.616zm5.329.708-.096.732h3.432l.108-.792h-2.088l1.092-.78c.912-.648 1.248-1.248 1.248-1.872 0-.864-.624-1.404-1.536-1.404-1.08 0-1.8.756-1.8 1.716 0 .156.024.288.048.408h.864c-.024-.12-.048-.252-.048-.372 0-.528.336-.936.864-.936.408 0 .708.252.708.66 0 .42-.3.864-.996 1.356zm7.834-9.564c-1.608 1.416-2.7 3.672-2.7 5.88 0 1.608.54 3.036 1.392 4.152h1.092c-.792-1.056-1.296-2.556-1.296-4.152 0-2.052.996-4.248 2.712-5.88zm5.29 8.856.312-2.244h1.68l.132-.96h-1.668l.768-5.412h-1.524l-4.488 5.472-.12.9h4.164l-.324 2.244zm-3.564-3.204 3.54-4.332-.612 4.332zm6.559 4.38c1.608-1.416 2.7-3.672 2.7-5.88 0-1.608-.54-3.036-1.392-4.152h-1.092c.792 1.056 1.296 2.556 1.296 4.152 0 2.052-.996 4.248-2.712 5.88z" fill="#000"/><path d="m156 107h32v32h-32z" fill="#ff6e3c" stroke="#fff"/><path d="m161.042 128 .54-3.828h3.744l.144-1.008h-3.744l.384-2.772h4.428l.144-1.008h-5.568l-1.212 8.616zm7.141-1.932-.36 2.58h-1.176l-.108.792h3.108l.108-.792h-1.02l.564-4.008h-.684c-.156.564-.408.756-1.032.78l-.504.024-.084.624zm6.022-6.924c-1.608 1.416-2.7 3.672-2.7 5.88 0 1.608.54 3.036 1.392 4.152h1.092c-.792-1.056-1.296-2.556-1.296-4.152 0-2.052.996-4.248 2.712-5.88zm5.29 8.856.312-2.244h1.68l.132-.96h-1.668l.768-5.412h-1.524l-4.488 5.472-.12.9h4.164l-.324 2.244zm-3.564-3.204 3.54-4.332-.612 4.332zm6.559 4.38c1.608-1.416 2.7-3.672 2.7-5.88 0-1.608-.54-3.036-1.392-4.152h-1.092c.792 1.056 1.296 2.556 1.296 4.152 0 2.052-.996 4.248-2.712 5.88z" fill="#000"/><path d="m188 43.0002h32v32h-32z" fill="#ff9574" stroke="#fff"/><path d="m193.112 64.0002.54-3.828h3.744l.144-1.008h-3.744l.384-2.772h4.428l.144-1.008h-5.568l-1.212 8.616zm7.105 1.512c1.056 0 1.752-.696 1.752-1.488 0-.492-.288-.876-.72-1.02.528-.12.972-.564.972-1.164 0-.708-.612-1.248-1.512-1.248-.936 0-1.62.576-1.848 1.392l.828.156c.144-.48.516-.768.936-.768.408 0 .684.24.684.588 0 .372-.336.696-.852.696h-.492l-.096.66h.444c.492 0 .792.252.792.636 0 .432-.36.78-.864.78s-.864-.348-.876-.864l-.9.144c.048.912.78 1.5 1.752 1.5zm6.059-10.368c-1.608 1.416-2.7 3.672-2.7 5.88 0 1.608.54 3.036 1.392 4.152h1.092c-.792-1.056-1.296-2.556-1.296-4.152 0-2.052.996-4.248 2.712-5.88zm3.784 8.988c1.896 0 3.108-1.26 3.108-2.712 0-.924-.528-1.584-1.344-1.836 1.008-.312 1.692-1.092 1.692-2.136 0-1.248-1.044-2.196-2.604-2.196-1.584 0-2.748.96-3.156 2.448l1.032.24c.312-1.128 1.116-1.704 2.064-1.704.9 0 1.548.528 1.548 1.284 0 .888-.768 1.512-1.788 1.512h-1.044l-.132.972h.936c.996 0 1.704.528 1.704 1.416 0 .984-.828 1.74-1.98 1.74-1.08 0-1.908-.696-1.992-1.92l-1.08.192c.024 1.716 1.392 2.7 3.036 2.7zm4.36 1.044c1.608-1.416 2.7-3.672 2.7-5.88 0-1.608-.54-3.036-1.392-4.152h-1.092c.792 1.056 1.296 2.556 1.296 4.152 0 2.052-.996 4.248-2.713 5.88z" fill="#000"/><path d="m156 75.0002h32v32h-32z" fill="#ff9574" stroke="#fff"/><path d="m161.112 96.0002.54-3.828h3.744l.144-1.008h-3.744l.384-2.772h4.428l.144-1.008h-5.568l-1.212 8.616zm5.329.708-.096.732h3.432l.108-.792h-2.088l1.092-.78c.912-.648 1.248-1.248 1.248-1.872 0-.864-.624-1.404-1.536-1.404-1.08 0-1.8.756-1.8 1.716 0 .156.024.288.048.408h.864c-.024-.12-.048-.252-.048-.372 0-.528.336-.936.864-.936.408 0 .708.252.708.66 0 .42-.3.864-.996 1.356zm7.835-9.564c-1.608 1.416-2.7 3.672-2.7 5.88 0 1.608.54 3.036 1.392 4.152h1.092c-.792-1.056-1.296-2.556-1.296-4.152 0-2.052.996-4.248 2.712-5.88zm3.784 8.988c1.896 0 3.108-1.26 3.108-2.712 0-.924-.528-1.584-1.344-1.836 1.008-.312 1.692-1.092 1.692-2.136 0-1.248-1.044-2.196-2.604-2.196-1.584 0-2.748.96-3.156 2.448l1.032.24c.312-1.128 1.116-1.704 2.064-1.704.9 0 1.548.528 1.548 1.284 0 .888-.768 1.512-1.788 1.512h-1.044l-.132.972h.936c.996 0 1.704.528 1.704 1.416 0 .984-.828 1.74-1.98 1.74-1.08 0-1.908-.696-1.992-1.92l-1.08.192c.024 1.716 1.392 2.7 3.036 2.7zm4.36 1.044c1.608-1.416 2.7-3.672 2.7-5.88 0-1.608-.54-3.036-1.392-4.152h-1.092c.792 1.056 1.296 2.556 1.296 4.152 0 2.052-.996 4.248-2.713 5.88z" fill="#000"/><path d="m124 107h32v32h-32z" fill="#ff9574" stroke="#fff"/><path d="m129.112 128 .54-3.828h3.744l.144-1.008h-3.744l.384-2.772h4.428l.144-1.008h-5.568l-1.212 8.616zm7.141-1.932-.36 2.58h-1.176l-.108.792h3.108l.108-.792h-1.02l.564-4.008h-.684c-.156.564-.408.756-1.032.78l-.504.024-.084.624zm6.023-6.924c-1.608 1.416-2.7 3.672-2.7 5.88 0 1.608.54 3.036 1.392 4.152h1.092c-.792-1.056-1.296-2.556-1.296-4.152 0-2.052.996-4.248 2.712-5.88zm3.784 8.988c1.896 0 3.108-1.26 3.108-2.712 0-.924-.528-1.584-1.344-1.836 1.008-.312 1.692-1.092 1.692-2.136 0-1.248-1.044-2.196-2.604-2.196-1.584 0-2.748.96-3.156 2.448l1.032.24c.312-1.128 1.116-1.704 2.064-1.704.9 0 1.548.528 1.548 1.284 0 .888-.768 1.512-1.788 1.512h-1.044l-.132.972h.936c.996 0 1.704.528 1.704 1.416 0 .984-.828 1.74-1.98 1.74-1.08 0-1.908-.696-1.992-1.92l-1.08.192c.024 1.716 1.392 2.7 3.036 2.7zm4.36 1.044c1.608-1.416 2.7-3.672 2.7-5.88 0-1.608-.54-3.036-1.392-4.152h-1.092c.792 1.056 1.296 2.556 1.296 4.152 0 2.052-.996 4.248-2.713 5.88z" fill="#000"/><path d="m156 43.0002h32v32h-32z" fill="#ffb7a4" stroke="#fff"/><path d="m160.689 64.0002.54-3.828h3.744l.144-1.008h-3.744l.384-2.772h4.428l.144-1.008h-5.568l-1.212 8.616zm7.104 1.512c1.056 0 1.752-.696 1.752-1.488 0-.492-.288-.876-.72-1.02.528-.12.972-.564.972-1.164 0-.708-.612-1.248-1.512-1.248-.936 0-1.62.576-1.848 1.392l.828.156c.144-.48.516-.768.936-.768.408 0 .684.24.684.588 0 .372-.336.696-.852.696h-.492l-.096.66h.444c.492 0 .792.252.792.636 0 .432-.36.78-.864.78s-.864-.348-.876-.864l-.9.144c.048.912.78 1.5 1.752 1.5zm6.059-10.368c-1.608 1.416-2.7 3.672-2.7 5.88 0 1.608.54 3.036 1.392 4.152h1.092c-.792-1.056-1.296-2.556-1.296-4.152 0-2.052.996-4.248 2.712-5.88zm.676 7.908-.132.948h5.928l.144-1.008h-4.296l2.496-1.824c1.656-1.212 2.34-2.292 2.34-3.444 0-1.476-1.14-2.472-2.676-2.472-1.776 0-3.036 1.344-3.036 3.048 0 .24.024.456.072.648h1.068c-.048-.192-.06-.396-.06-.6 0-1.248.828-2.112 1.92-2.112.936 0 1.584.636 1.584 1.536 0 .804-.504 1.68-2.064 2.832zm7.315 2.124c1.608-1.416 2.7-3.672 2.7-5.88 0-1.608-.54-3.036-1.392-4.152h-1.092c.792 1.056 1.296 2.556 1.296 4.152 0 2.052-.996 4.248-2.712 5.88z" fill="#000"/><path d="m124 75.0002h32v32h-32z" fill="#ffb7a4" stroke="#fff"/><path d="m128.689 96.0002.54-3.828h3.744l.144-1.008h-3.744l.384-2.772h4.428l.144-1.008h-5.568l-1.212 8.616zm5.328.708-.096.732h3.432l.108-.792h-2.088l1.092-.78c.912-.648 1.248-1.248 1.248-1.872 0-.864-.624-1.404-1.536-1.404-1.08 0-1.8.756-1.8 1.716 0 .156.024.288.048.408h.864c-.024-.12-.048-.252-.048-.372 0-.528.336-.936.864-.936.408 0 .708.252.708.66 0 .42-.3.864-.996 1.356zm7.835-9.564c-1.608 1.416-2.7 3.672-2.7 5.88 0 1.608.54 3.036 1.392 4.152h1.092c-.792-1.056-1.296-2.556-1.296-4.152 0-2.052.996-4.248 2.712-5.88zm.676 7.908-.132.948h5.928l.144-1.008h-4.296l2.496-1.824c1.656-1.212 2.34-2.292 2.34-3.444 0-1.476-1.14-2.472-2.676-2.472-1.776 0-3.036 1.344-3.036 3.048 0 .24.024.456.072.648h1.068c-.048-.192-.06-.396-.06-.6 0-1.248.828-2.112 1.92-2.112.936 0 1.584.636 1.584 1.536 0 .804-.504 1.68-2.064 2.832zm7.315 2.124c1.608-1.416 2.7-3.672 2.7-5.88 0-1.608-.54-3.036-1.392-4.152h-1.092c.792 1.056 1.296 2.556 1.296 4.152 0 2.052-.996 4.248-2.712 5.88z" fill="#000"/><path d="m92 107h32v32h-32z" fill="#ffb7a4" stroke="#fff"/><path d="m96.6886 128 .54-3.828h3.7444l.144-1.008h-3.7444l.384-2.772h4.4284l.144-1.008h-5.5684l-1.212 8.616zm7.1404-1.932-.36 2.58h-1.176l-.108.792h3.108l.108-.792h-1.02l.564-4.008h-.684c-.156.564-.408.756-1.032.78l-.504.024-.084.624zm6.023-6.924c-1.608 1.416-2.7 3.672-2.7 5.88 0 1.608.54 3.036 1.392 4.152h1.092c-.792-1.056-1.296-2.556-1.296-4.152 0-2.052.996-4.248 2.712-5.88zm.676 7.908-.132.948h5.928l.144-1.008h-4.296l2.496-1.824c1.656-1.212 2.34-2.292 2.34-3.444 0-1.476-1.14-2.472-2.676-2.472-1.776 0-3.036 1.344-3.036 3.048 0 .24.024.456.072.648h1.068c-.048-.192-.06-.396-.06-.6 0-1.248.828-2.112 1.92-2.112.936 0 1.584.636 1.584 1.536 0 .804-.504 1.68-2.064 2.832zm7.315 2.124c1.608-1.416 2.7-3.672 2.7-5.88 0-1.608-.54-3.036-1.392-4.152h-1.092c.792 1.056 1.296 2.556 1.296 4.152 0 2.052-.996 4.248-2.712 5.88z" fill="#000"/><path d="m380 107h32v32h-32z" fill="#ffb7a4" stroke="#fff"/><path d="m385.001 128 .54-3.828h3.744l.144-1.008h-3.744l.384-2.772h4.428l.144-1.008h-5.568l-1.212 8.616zm7.141-1.932-.36 2.58h-1.176l-.108.792h3.108l.108-.792h-1.02l.564-4.008h-.684c-.156.564-.408.756-1.032.78l-.504.024-.084.624zm6.022-6.924c-1.608 1.416-2.7 3.672-2.7 5.88 0 1.608.54 3.036 1.392 4.152h1.092c-.792-1.056-1.296-2.556-1.296-4.152 0-2.052.996-4.248 2.712-5.88zm7.66 2.196c-.192-1.212-1.152-2.088-2.544-2.088-2.388 0-3.996 2.484-3.996 5.436 0 2.268 1.2 3.444 2.856 3.444 1.896 0 3.18-1.584 3.18-3.252 0-1.476-1.032-2.58-2.568-2.58-.984 0-1.836.492-2.34 1.236.264-1.908 1.404-3.3 2.76-3.3.9 0 1.56.576 1.68 1.44zm-3.672 5.844c-1.008 0-1.74-.744-1.74-1.764 0-1.164.864-2.184 2.088-2.184 1.02 0 1.764.732 1.764 1.74 0 1.164-.888 2.208-2.112 2.208zm4.379 1.992c1.608-1.416 2.7-3.672 2.7-5.88 0-1.608-.54-3.036-1.392-4.152h-1.092c.792 1.056 1.296 2.556 1.296 4.152 0 2.052-.996 4.248-2.712 5.88z" fill="#000"/><path d="m124 43.0002h32v32h-32z" fill="#ffd3c9" stroke="#fff"/><path d="m129.778 64.0002.54-3.828h3.744l.144-1.008h-3.744l.384-2.772h4.428l.144-1.008h-5.568l-1.212 8.616zm7.105 1.512c1.056 0 1.752-.696 1.752-1.488 0-.492-.288-.876-.72-1.02.528-.12.972-.564.972-1.164 0-.708-.612-1.248-1.512-1.248-.936 0-1.62.576-1.848 1.392l.828.156c.144-.48.516-.768.936-.768.408 0 .684.24.684.588 0 .372-.336.696-.852.696h-.492l-.096.66h.444c.492 0 .792.252.792.636 0 .432-.36.78-.864.78s-.864-.348-.876-.864l-.9.144c.048.912.78 1.5 1.752 1.5zm6.059-10.368c-1.608 1.416-2.7 3.672-2.7 5.88 0 1.608.54 3.036 1.392 4.152h1.092c-.792-1.056-1.296-2.556-1.296-4.152 0-2.052.996-4.248 2.712-5.88zm3.964.192c-.216.996-.6 1.344-1.632 1.416l-.936.06-.12.852h2.076l-.888 6.336h1.152l1.212-8.664zm1.847 9.84c1.608-1.416 2.7-3.672 2.7-5.88 0-1.608-.54-3.036-1.392-4.152h-1.092c.792 1.056 1.296 2.556 1.296 4.152 0 2.052-.996 4.248-2.712 5.88z" fill="#000"/><path d="m92 75.0002h32v32h-32z" fill="#ffd3c9" stroke="#fff"/><path d="m97.7785 96.0002.54-3.828h3.7435l.144-1.008h-3.7435l.384-2.772h4.4275l.144-1.008h-5.5675l-1.212 8.616zm5.3285.708-.096.732h3.432l.108-.792h-2.088l1.092-.78c.912-.648 1.248-1.248 1.248-1.872 0-.864-.624-1.404-1.536-1.404-1.08 0-1.8.756-1.8 1.716 0 .156.024.288.048.408h.864c-.024-.12-.048-.252-.048-.372 0-.528.336-.936.864-.936.408 0 .708.252.708.66 0 .42-.3.864-.996 1.356zm7.835-9.564c-1.608 1.416-2.7 3.672-2.7 5.88 0 1.608.54 3.036 1.392 4.152h1.092c-.792-1.056-1.296-2.556-1.296-4.152 0-2.052.996-4.248 2.712-5.88zm3.964.192c-.216.996-.6 1.344-1.632 1.416l-.936.06-.12.852h2.076l-.888 6.336h1.152l1.212-8.664zm1.847 9.84c1.608-1.416 2.7-3.672 2.7-5.88 0-1.608-.54-3.036-1.392-4.152h-1.092c.792 1.056 1.296 2.556 1.296 4.152 0 2.052-.996 4.248-2.712 5.88z" fill="#000"/><path d="m60 107h32v32h-32z" fill="#ffd3c9" stroke="#fff"/><path d="m65.7785 128 .54-3.828h3.744l.144-1.008h-3.744l.384-2.772h4.428l.144-1.008h-5.568l-1.212 8.616zm7.1406-1.932-.36 2.58h-1.176l-.108.792h3.108l.108-.792h-1.02l.564-4.008h-.684c-.156.564-.408.756-1.032.78l-.504.024-.084.624zm6.0226-6.924c-1.608 1.416-2.7 3.672-2.7 5.88 0 1.608.54 3.036 1.392 4.152h1.092c-.792-1.056-1.296-2.556-1.296-4.152 0-2.052.996-4.248 2.712-5.88zm3.9641.192c-.216.996-.6 1.344-1.632 1.416l-.936.06-.12.852h2.076l-.888 6.336h1.152l1.212-8.664zm1.8477 9.84c1.608-1.416 2.7-3.672 2.7-5.88 0-1.608-.54-3.036-1.392-4.152h-1.092c.792 1.056 1.296 2.556 1.296 4.152 0 2.052-.996 4.248-2.712 5.88z" fill="#000"/><path d="m540 107h32v32h-32z" fill="#ff6e3c" stroke="#fff"/><path d="m544.948 128 .54-3.828h3.744l.144-1.008h-3.744l.384-2.772h4.428l.144-1.008h-5.568l-1.212 8.616zm7.141-1.932-.36 2.58h-1.176l-.108.792h3.108l.108-.792h-1.02l.564-4.008h-.684c-.156.564-.408.756-1.032.78l-.504.024-.084.624zm6.023-6.924c-1.608 1.416-2.7 3.672-2.7 5.88 0 1.608.54 3.036 1.392 4.152h1.092c-.792-1.056-1.296-2.556-1.296-4.152 0-2.052.996-4.248 2.712-5.88zm4.732.108c-1.752 0-2.856 1.104-2.856 2.4 0 .756.396 1.332 1.116 1.716-1.332.288-2.148 1.308-2.148 2.448 0 1.344 1.152 2.304 3.036 2.304 2.028 0 3.348-1.176 3.348-2.616 0-.96-.588-1.656-1.488-1.992 1.056-.36 1.608-1.188 1.608-2.1 0-1.248-1.02-2.16-2.616-2.16zm-.204 3.732c-.96 0-1.608-.552-1.608-1.332 0-.816.72-1.488 1.788-1.488.972 0 1.608.552 1.608 1.332 0 .816-.72 1.488-1.788 1.488zm-.636 4.212c-1.092 0-1.932-.6-1.932-1.512 0-.984.924-1.764 2.196-1.764 1.116 0 1.956.6 1.956 1.524 0 .972-.936 1.752-2.22 1.752zm4.58 1.98c1.608-1.416 2.7-3.672 2.7-5.88 0-1.608-.54-3.036-1.392-4.152h-1.092c.792 1.056 1.296 2.556 1.296 4.152 0 2.052-.996 4.248-2.712 5.88z" fill="#000"/><path d="m572 75h32v32h-32z" fill="#ff6e3c" stroke="#fff"/><path d="m576.948 96 .54-3.828h3.744l.144-1.008h-3.744l.384-2.772h4.428l.144-1.008h-5.568l-1.212 8.616zm5.329.708-.096.732h3.432l.108-.792h-2.088l1.092-.78c.912-.648 1.248-1.248 1.248-1.872 0-.864-.624-1.404-1.536-1.404-1.08 0-1.8.756-1.8 1.716 0 .156.024.288.048.408h.864c-.024-.12-.048-.252-.048-.372 0-.528.336-.936.864-.936.408 0 .708.252.708.66 0 .42-.3.864-.996 1.356zm7.835-9.564c-1.608 1.416-2.7 3.672-2.7 5.88 0 1.608.54 3.036 1.392 4.152h1.092c-.792-1.056-1.296-2.556-1.296-4.152 0-2.052.996-4.248 2.712-5.88zm4.732.108c-1.752 0-2.856 1.104-2.856 2.4 0 .756.396 1.332 1.116 1.716-1.332.288-2.148 1.308-2.148 2.448 0 1.344 1.152 2.304 3.036 2.304 2.028 0 3.348-1.176 3.348-2.616 0-.96-.588-1.656-1.488-1.992 1.056-.36 1.608-1.188 1.608-2.1 0-1.248-1.02-2.16-2.616-2.16zm-.204 3.732c-.96 0-1.608-.552-1.608-1.332 0-.816.72-1.488 1.788-1.488.972 0 1.608.552 1.608 1.332 0 .816-.72 1.488-1.788 1.488zm-.636 4.212c-1.092 0-1.932-.6-1.932-1.512 0-.984.924-1.764 2.196-1.764 1.116 0 1.956.6 1.956 1.524 0 .972-.936 1.752-2.22 1.752zm4.58 1.98c1.608-1.416 2.7-3.672 2.7-5.88 0-1.608-.54-3.036-1.392-4.152h-1.092c.792 1.056 1.296 2.556 1.296 4.152 0 2.052-.996 4.248-2.712 5.88z" fill="#000"/><path d="m444 107h32v32h-32z" fill="#ff9574" stroke="#fff"/><path d="m448.972 128 .54-3.828h3.744l.144-1.008h-3.744l.384-2.772h4.428l.144-1.008h-5.568l-1.212 8.616zm7.141-1.932-.36 2.58h-1.176l-.108.792h3.108l.108-.792h-1.02l.564-4.008h-.684c-.156.564-.408.756-1.032.78l-.504.024-.084.624zm6.022-6.924c-1.608 1.416-2.7 3.672-2.7 5.88 0 1.608.54 3.036 1.392 4.152h1.092c-.792-1.056-1.296-2.556-1.296-4.152 0-2.052.996-4.248 2.712-5.88zm6.499 1.236c-1.956 1.932-3.168 4.272-3.636 7.62h1.164c.432-3.192 1.44-5.316 3.78-7.62l.156-.996h-6.156l-.348 2.472h1.008l.204-1.476zm1.926 8.796c1.608-1.416 2.7-3.672 2.7-5.88 0-1.608-.54-3.036-1.392-4.152h-1.092c.792 1.056 1.296 2.556 1.296 4.152 0 2.052-.996 4.248-2.712 5.88z" fill="#000"/><path d="m476 75h32v32h-32z" fill="#ff9574" stroke="#fff"/><path d="m480.972 96 .54-3.828h3.744l.144-1.008h-3.744l.384-2.772h4.428l.144-1.008h-5.568l-1.212 8.616zm5.328.708-.096.732h3.433l.108-.792h-2.088l1.092-.78c.912-.648 1.248-1.248 1.248-1.872 0-.864-.624-1.404-1.536-1.404-1.08 0-1.8.756-1.8 1.716 0 .156.024.288.047.408h.865c-.024-.12-.048-.252-.048-.372 0-.528.336-.936.864-.936.408 0 .708.252.708.66 0 .42-.3.864-.996 1.356zm7.835-9.564c-1.608 1.416-2.7 3.672-2.7 5.88 0 1.608.54 3.036 1.392 4.152h1.092c-.792-1.056-1.296-2.556-1.296-4.152 0-2.052.996-4.248 2.712-5.88zm6.499 1.236c-1.956 1.932-3.168 4.272-3.636 7.62h1.164c.432-3.192 1.44-5.316 3.78-7.62l.156-.996h-6.156l-.348 2.472h1.008l.204-1.476zm1.926 8.796c1.608-1.416 2.7-3.672 2.7-5.88 0-1.608-.54-3.036-1.392-4.152h-1.092c.792 1.056 1.296 2.556 1.296 4.152 0 2.052-.996 4.248-2.712 5.88z" fill="#000"/><path d="m540 43h32v32h-32z" fill="#ff9574" stroke="#fff"/><path d="m544.972 64 .54-3.828h3.744l.144-1.008h-3.744l.384-2.772h4.428l.144-1.008h-5.568l-1.212 8.616zm7.104 1.512c1.057 0 1.753-.696 1.753-1.488 0-.492-.288-.876-.72-1.02.528-.12.972-.564.972-1.164 0-.708-.612-1.248-1.512-1.248-.936 0-1.62.576-1.848 1.392l.828.156c.144-.48.516-.768.936-.768.408 0 .684.24.684.588 0 .372-.336.696-.852.696h-.492l-.096.66h.444c.492 0 .792.252.792.636 0 .432-.36.78-.864.78s-.864-.348-.876-.864l-.9.144c.048.912.779 1.5 1.751 1.5zm6.059-10.368c-1.608 1.416-2.7 3.672-2.7 5.88 0 1.608.54 3.036 1.392 4.152h1.092c-.792-1.056-1.296-2.556-1.296-4.152 0-2.052.996-4.248 2.712-5.88zm6.499 1.236c-1.956 1.932-3.168 4.272-3.636 7.62h1.164c.432-3.192 1.44-5.316 3.78-7.62l.156-.996h-6.156l-.348 2.472h1.008l.204-1.476zm1.926 8.796c1.608-1.416 2.7-3.672 2.7-5.88 0-1.608-.54-3.036-1.392-4.152h-1.092c.792 1.056 1.296 2.556 1.296 4.152 0 2.052-.996 4.248-2.712 5.88z" fill="#000"/><path d="m572 11h32v32h-32z" fill="#ff9574" stroke="#fff"/><path d="m576.972 32 .54-3.828h3.744l.144-1.008h-3.744l.384-2.772h4.428l.144-1.008h-5.568l-1.212 8.616zm8.113 1.44.168-1.176h.828l.084-.708h-.816l.408-2.892h-1.224l-2.293 2.94-.096.66h2.257l-.168 1.176zm-1.992-1.884 1.692-2.148-.3 2.148zm7.042-8.412c-1.608 1.416-2.7 3.672-2.7 5.88 0 1.608.54 3.036 1.392 4.152h1.092c-.792-1.056-1.296-2.556-1.296-4.152 0-2.052.996-4.248 2.712-5.88zm6.499 1.236c-1.956 1.932-3.168 4.272-3.636 7.62h1.164c.432-3.192 1.44-5.316 3.78-7.62l.156-.996h-6.156l-.348 2.472h1.008l.204-1.476zm1.926 8.796c1.608-1.416 2.7-3.672 2.7-5.88 0-1.608-.54-3.036-1.392-4.152h-1.092c.792 1.056 1.296 2.556 1.296 4.152 0 2.052-.996 4.248-2.712 5.88z" fill="#000"/><path d="m412 75.0002h32v32h-32z" fill="#ffb7a4" stroke="#fff"/><path d="m417.001 96.0002.54-3.828h3.744l.144-1.008h-3.744l.384-2.772h4.428l.144-1.008h-5.568l-1.212 8.616zm5.329.708-.096.732h3.432l.108-.792h-2.088l1.092-.78c.912-.648 1.248-1.248 1.248-1.872 0-.864-.624-1.404-1.536-1.404-1.08 0-1.8.756-1.8 1.716 0 .156.024.288.048.408h.864c-.024-.12-.048-.252-.048-.372 0-.528.336-.936.864-.936.408 0 .708.252.708.66 0 .42-.3.864-.996 1.356zm7.834-9.564c-1.608 1.416-2.7 3.672-2.7 5.88 0 1.608.54 3.036 1.392 4.152h1.092c-.792-1.056-1.296-2.556-1.296-4.152 0-2.052.996-4.248 2.712-5.88zm7.66 2.196c-.192-1.212-1.152-2.088-2.544-2.088-2.388 0-3.996 2.484-3.996 5.436 0 2.268 1.2 3.444 2.856 3.444 1.896 0 3.18-1.584 3.18-3.252 0-1.476-1.032-2.58-2.568-2.58-.984 0-1.836.492-2.34 1.236.264-1.908 1.404-3.3 2.76-3.3.9 0 1.56.576 1.68 1.44zm-3.672 5.844c-1.008 0-1.74-.744-1.74-1.764 0-1.164.864-2.184 2.088-2.184 1.02 0 1.764.732 1.764 1.74 0 1.164-.888 2.208-2.112 2.208zm4.379 1.992c1.608-1.416 2.7-3.672 2.7-5.88 0-1.608-.54-3.036-1.392-4.152h-1.092c.792 1.056 1.296 2.556 1.296 4.152 0 2.052-.996 4.248-2.712 5.88z" fill="#000"/><path d="m444 43h32v32h-32z" fill="#ffb7a4" stroke="#fff"/><path d="m449.001 64 .54-3.828h3.744l.144-1.008h-3.744l.384-2.772h4.428l.144-1.008h-5.568l-1.212 8.616zm7.105 1.512c1.056 0 1.752-.696 1.752-1.488 0-.492-.288-.876-.72-1.02.528-.12.972-.564.972-1.164 0-.708-.612-1.248-1.512-1.248-.936 0-1.62.576-1.848 1.392l.828.156c.144-.48.516-.768.936-.768.408 0 .684.24.684.588 0 .372-.336.696-.852.696h-.492l-.096.66h.444c.492 0 .792.252.792.636 0 .432-.36.78-.864.78s-.864-.348-.876-.864l-.9.144c.048.912.78 1.5 1.752 1.5zm6.058-10.368c-1.608 1.416-2.7 3.672-2.7 5.88 0 1.608.54 3.036 1.392 4.152h1.092c-.792-1.056-1.296-2.556-1.296-4.152 0-2.052.996-4.248 2.712-5.88zm7.66 2.196c-.192-1.212-1.152-2.088-2.544-2.088-2.388 0-3.996 2.484-3.996 5.436 0 2.268 1.2 3.444 2.856 3.444 1.896 0 3.18-1.584 3.18-3.252 0-1.476-1.032-2.58-2.568-2.58-.984 0-1.836.492-2.34 1.236.264-1.908 1.404-3.3 2.76-3.3.9 0 1.56.576 1.68 1.44zm-3.672 5.844c-1.008 0-1.74-.744-1.74-1.764 0-1.164.864-2.184 2.088-2.184 1.02 0 1.764.732 1.764 1.74 0 1.164-.888 2.208-2.112 2.208zm4.379 1.992c1.608-1.416 2.7-3.672 2.7-5.88 0-1.608-.54-3.036-1.392-4.152h-1.092c.792 1.056 1.296 2.556 1.296 4.152 0 2.052-.996 4.248-2.712 5.88z" fill="#000"/><path d="m476 10.9998h32v32h-32z" fill="#ffb7a4" stroke="#fff"/><g fill="#000"><path d="m481.001 31.9998.54-3.828h3.744l.144-1.008h-3.744l.384-2.772h4.428l.144-1.008h-5.568l-1.212 8.616zm8.113 1.44.168-1.176h.828l.084-.708h-.816l.408-2.892h-1.224l-2.292 2.94-.096.66h2.256l-.168 1.176zm-1.992-1.884 1.692-2.148-.3 2.148zm7.042-8.412c-1.608 1.416-2.7 3.672-2.7 5.88 0 1.608.54 3.036 1.392 4.152h1.092c-.792-1.056-1.296-2.556-1.296-4.152 0-2.052.996-4.248 2.712-5.88zm7.66 2.196c-.192-1.212-1.152-2.088-2.544-2.088-2.388 0-3.996 2.484-3.996 5.436 0 2.268 1.2 3.444 2.856 3.444 1.896 0 3.18-1.584 3.18-3.252 0-1.476-1.032-2.58-2.568-2.58-.984 0-1.836.492-2.34 1.236.264-1.908 1.404-3.3 2.76-3.3.9 0 1.56.576 1.68 1.44zm-3.672 5.844c-1.008 0-1.74-.744-1.74-1.764 0-1.164.864-2.184 2.088-2.184 1.02 0 1.764.732 1.764 1.74 0 1.164-.888 2.208-2.112 2.208zm4.379 1.992c1.608-1.416 2.7-3.672 2.7-5.88 0-1.608-.54-3.036-1.392-4.152h-1.092c.792 1.056 1.296 2.556 1.296 4.152 0 2.052-.996 4.248-2.712 5.88z"/><path d="m5.69988 119.384-1.812 6.9-1.836-6.9h-1.188005l2.376005 8.616h1.128l1.824-6.708 1.836 6.708h1.128l2.36402-8.616h-1.14l-1.83602 6.9-1.824-6.9zm11.80712 5.484c0-1.944-1.2-3.264-2.916-3.264s-2.916 1.32-2.916 3.264 1.2 3.264 2.916 3.264 2.916-1.32 2.916-3.264zm-4.74 0c0-1.44.72-2.352 1.824-2.352s1.824.912 1.824 2.352c0 1.428-.72 2.34-1.824 2.34s-1.824-.912-1.824-2.34zm9.3655-3.168c-.108-.012-.264-.024-.432-.024-.852 0-1.464.48-1.74 1.116v-1.068h-1.08v6.276h1.08v-3.432c0-1.104.732-1.824 1.644-1.824.204 0 .348.012.528.048zm2.2694-2.316h-1.08v8.616h1.08v-2.1l.912-.924 2.16 3.024h1.26l-2.652-3.804 2.448-2.472h-1.344l-2.784 2.928zm7.5803 8.748c1.248 0 2.196-.684 2.58-1.8l-.948-.336c-.192.744-.792 1.2-1.632 1.2-1.092 0-1.848-.84-1.908-2.16h4.536v-.36c0-1.74-.924-3.072-2.676-3.072-1.704 0-2.892 1.392-2.892 3.264 0 1.932 1.2 3.264 2.94 3.264zm-.06-5.604c1.092 0 1.572.792 1.596 1.68h-3.384c.192-1.068.876-1.68 1.788-1.68zm7.2845-.828c-.108-.012-.264-.024-.432-.024-.852 0-1.464.48-1.74 1.116v-1.068h-1.08v6.276h1.08v-3.432c0-1.104.732-1.824 1.644-1.824.204 0 .348.012.528.048zm6.4806-2.364c-.06 1.02-.444 1.368-1.416 1.428l-1.08.06v.84h2.244v5.376h-2.34v.96h5.532v-.96h-2.076v-7.704z"/><path d="m5.69988 87.3842-1.812 6.9-1.836-6.9h-1.188005l2.376005 8.616h1.128l1.824-6.708 1.836 6.708h1.128l2.36402-8.616h-1.14l-1.83602 6.9-1.824-6.9zm11.80712 5.484c0-1.944-1.2-3.264-2.916-3.264s-2.916 1.32-2.916 3.264 1.2 3.264 2.916 3.264 2.916-1.32 2.916-3.264zm-4.74 0c0-1.44.72-2.352 1.824-2.352s1.824.912 1.824 2.352c0 1.428-.72 2.34-1.824 2.34s-1.824-.912-1.824-2.34zm9.3655-3.168c-.108-.012-.264-.024-.432-.024-.852 0-1.464.48-1.74 1.116v-1.068h-1.08v6.276h1.08v-3.432c0-1.104.732-1.824 1.644-1.824.204 0 .348.012.528.048zm2.2694-2.316h-1.08v8.616h1.08v-2.1l.912-.924 2.16 3.024h1.26l-2.652-3.804 2.448-2.472h-1.344l-2.784 2.928zm7.5803 8.748c1.248 0 2.196-.684 2.58-1.8l-.948-.336c-.192.744-.792 1.2-1.632 1.2-1.092 0-1.848-.84-1.908-2.16h4.536v-.36c0-1.74-.924-3.072-2.676-3.072-1.704 0-2.892 1.392-2.892 3.264 0 1.932 1.2 3.264 2.94 3.264zm-.06-5.604c1.092 0 1.572.792 1.596 1.68h-3.384c.192-1.068.876-1.68 1.788-1.68zm7.2845-.828c-.108-.012-.264-.024-.432-.024-.852 0-1.464.48-1.74 1.116v-1.068h-1.08v6.276h1.08v-3.432c0-1.104.732-1.824 1.644-1.824.204 0 .348.012.528.048zm3.4686 5.352v.948h5.94v-1.008h-4.356l1.932-1.584c1.236-.996 2.256-2.004 2.256-3.468 0-1.584-1.104-2.688-2.844-2.688-1.596 0-2.844 1.164-2.844 2.7 0 .336.048.624.18.996h1.08c-.12-.3-.18-.624-.18-.936 0-.984.696-1.776 1.74-1.776s1.728.72 1.728 1.776c0 1.128-.912 1.956-2.088 2.928z"/><path d="m5.69988 55.3842-1.812 6.9-1.836-6.9h-1.188005l2.376005 8.616h1.128l1.824-6.708 1.836 6.708h1.128l2.36402-8.616h-1.14l-1.83602 6.9-1.824-6.9zm11.80712 5.484c0-1.944-1.2-3.264-2.916-3.264s-2.916 1.32-2.916 3.264 1.2 3.264 2.916 3.264 2.916-1.32 2.916-3.264zm-4.74 0c0-1.44.72-2.352 1.824-2.352s1.824.912 1.824 2.352c0 1.428-.72 2.34-1.824 2.34s-1.824-.912-1.824-2.34zm9.3655-3.168c-.108-.012-.264-.024-.432-.024-.852 0-1.464.48-1.74 1.116v-1.068h-1.08v6.276h1.08v-3.432c0-1.104.732-1.824 1.644-1.824.204 0 .348.012.528.048zm2.2694-2.316h-1.08v8.616h1.08v-2.1l.912-.924 2.16 3.024h1.26l-2.652-3.804 2.448-2.472h-1.344l-2.784 2.928zm7.5803 8.748c1.248 0 2.196-.684 2.58-1.8l-.948-.336c-.192.744-.792 1.2-1.632 1.2-1.092 0-1.848-.84-1.908-2.16h4.536v-.36c0-1.74-.924-3.072-2.676-3.072-1.704 0-2.892 1.392-2.892 3.264 0 1.932 1.2 3.264 2.94 3.264zm-.06-5.604c1.092 0 1.572.792 1.596 1.68h-3.384c.192-1.068.876-1.68 1.788-1.68zm7.2845-.828c-.108-.012-.264-.024-.432-.024-.852 0-1.464.48-1.74 1.116v-1.068h-1.08v6.276h1.08v-3.432c0-1.104.732-1.824 1.644-1.824.204 0 .348.012.528.048zm6.5406 6.432c1.788 0 2.952-1.128 2.952-2.544 0-1.188-.756-1.848-1.608-2.088.72-.24 1.368-.96 1.368-1.896 0-1.368-.996-2.352-2.676-2.352s-2.784 1.092-3.012 2.532l1.032.204c.192-1.08.912-1.764 1.956-1.764.984 0 1.62.564 1.62 1.452 0 .876-.684 1.356-1.692 1.356h-.948v.972h.924c1.08 0 1.92.504 1.92 1.524s-.756 1.644-1.86 1.644c-1.068 0-1.92-.696-2.1-1.896l-1.104.24c.264 1.716 1.584 2.616 3.228 2.616z"/><path d="m5.69988 23.3842-1.812 6.9-1.836-6.9h-1.188005l2.376005 8.616h1.128l1.824-6.708 1.836 6.708h1.128l2.36402-8.616h-1.14l-1.83602 6.9-1.824-6.9zm11.80712 5.484c0-1.944-1.2-3.264-2.916-3.264s-2.916 1.32-2.916 3.264 1.2 3.264 2.916 3.264 2.916-1.32 2.916-3.264zm-4.74 0c0-1.44.72-2.352 1.824-2.352s1.824.912 1.824 2.352c0 1.428-.72 2.34-1.824 2.34s-1.824-.912-1.824-2.34zm9.3655-3.168c-.108-.012-.264-.024-.432-.024-.852 0-1.464.48-1.74 1.116v-1.068h-1.08v6.276h1.08v-3.432c0-1.104.732-1.824 1.644-1.824.204 0 .348.012.528.048zm2.2694-2.316h-1.08v8.616h1.08v-2.1l.912-.924 2.16 3.024h1.26l-2.652-3.804 2.448-2.472h-1.344l-2.784 2.928zm7.5803 8.748c1.248 0 2.196-.684 2.58-1.8l-.948-.336c-.192.744-.792 1.2-1.632 1.2-1.092 0-1.848-.84-1.908-2.16h4.536v-.36c0-1.74-.924-3.072-2.676-3.072-1.704 0-2.892 1.392-2.892 3.264 0 1.932 1.2 3.264 2.94 3.264zm-.06-5.604c1.092 0 1.572.792 1.596 1.68h-3.384c.192-1.068.876-1.68 1.788-1.68zm7.2845-.828c-.108-.012-.264-.024-.432-.024-.852 0-1.464.48-1.74 1.116v-1.068h-1.08v6.276h1.08v-3.432c0-1.104.732-1.824 1.644-1.824.204 0 .348.012.528.048zm8.2086 6.3v-2.256h1.608v-.948h-1.584v-5.412h-1.452l-3.696 5.472v.888h4.08v2.256zm-3.96-3.204 2.904-4.32v4.32z"/><path d="m59 .5-2.8867 5h5.7735zm.5 140v-106.6338h-1v106.6338zm0-106.6338v-28.8662h-1v28.8662z"/><path d="m623 140-5-2.887v5.774zm-563 .5h375.218v-1h-375.218zm375.218 0h183.282v-1h-183.282z"/></g></svg>